<svg width="36" height="36" viewBox="0 0 36 36" fill="none" xmlns="http://www.w3.org/2000/svg">
<g clip-path="url(#clip0_241_3510)">
<path d="M26.7712 0.785156H9.22708C4.56473 0.785156 0.785156 4.56473 0.785156 9.22708V26.7712C0.785156 31.4335 4.56473 35.2131 9.22708 35.2131H26.7712C31.4335 35.2131 35.2131 31.4335 35.2131 26.7712V9.22708C35.2131 4.56473 31.4335 0.785156 26.7712 0.785156Z" stroke="black" stroke-miterlimit="10"/>
<path d="M17.9994 6.83994C12.0256 6.83994 7.16797 11.3203 7.16797 16.8539C7.16797 20.9412 8.88151 22.8906 11.2239 24.667V29.4618C11.2239 29.6819 11.4754 29.8233 11.664 29.6819L15.7671 26.6321L15.8614 26.6635C16.5531 26.7893 17.2605 26.8522 17.9837 26.8522C23.9575 26.8522 28.8151 22.3718 28.8151 16.8382C28.8151 11.3046 23.9732 6.82422 17.9837 6.82422M14.368 19.3849C15.437 19.3849 16.333 18.7561 16.616 17.7657H18.1881C17.8108 19.6522 16.333 20.8941 14.3837 20.8941C12.1042 20.8941 10.2964 19.1963 10.2964 16.8382C10.2964 14.4801 12.1042 12.7823 14.3837 12.7823C16.3645 12.7823 17.8422 14.0399 18.2038 15.9736H16.6317C16.3959 14.936 15.4527 14.2757 14.368 14.2757C12.8431 14.2757 11.8212 15.3605 11.8212 16.8539C11.8212 18.3474 12.9846 19.4006 14.368 19.4006M24.7121 20.7369H23.2658V17.4985C23.2658 16.7439 22.8256 16.3509 22.1654 16.3509C21.4108 16.3509 20.9391 16.8068 20.9391 17.7343V20.7526H19.4929V12.8137H20.9391V15.8006C21.285 15.2819 21.8352 15.0146 22.6055 15.0146C23.2186 15.0146 23.7217 15.219 24.1147 15.6277C24.5234 16.0364 24.7121 16.6024 24.7121 17.3255V20.7526V20.7369Z" fill="black"/>
</g>
<defs>
<clipPath id="clip0_241_3510">
<rect width="36" height="36" fill="white"/>
</clipPath>
</defs>
</svg>
