<svg width="100" height="46" viewBox="0 0 100 46" fill="none" xmlns="http://www.w3.org/2000/svg">
<g clip-path="url(#clip0_241_3448)">
<path d="M0 26.9443C0.879873 10.3966 15.7399 -1.98941 32.0909 0.270455C40.022 1.36952 47.1343 6.03744 51.5214 12.7306L53.9778 9.77918L54.711 20.1029L46.9266 13.4592L50.5194 13.1258C42.2828 2.51797 27.5449 -0.51988 15.7399 5.98804C3.93499 12.496 -0.855432 25.9934 2.72516 38.6141C3.104 39.9478 3.66614 41.2074 4.11829 42.504C3.825 42.2941 3.60503 41.8372 3.43395 41.5161C1.45423 37.9596 0.232189 33.6621 0 29.624V26.9443Z" fill="black"/>
<path d="M32.9826 45.9992C29.0354 45.5423 25.296 44.3197 21.9598 42.1587C21.4221 41.8129 20.1512 40.6644 19.7357 40.5039C19.5035 40.4174 19.5768 40.5533 19.5279 40.6644C19.1002 41.5536 18.8558 42.5538 18.4281 43.4429L14.5664 33.9219L23.7195 37.7007L23.9395 37.9476L21.2754 38.9603C28.1189 43.3565 36.6854 44.6655 44.6776 43.4553C43.6878 44.2333 42.258 44.7396 41.0604 45.0977C39.8627 45.4558 37.993 45.9004 36.6977 45.9992H32.9704H32.9826Z" fill="black"/>
<path d="M55.0547 22.2536C55.2136 22.0683 58.0976 22.093 58.5497 22.1548C60.9816 22.5005 61.3482 25.489 59.1852 26.4769C60.505 27.2796 60.3217 29.1443 60.9083 30.4286L59.3074 30.3668C58.5864 28.8356 59.0752 26.588 56.6556 27.0697V30.2187C56.2645 30.6138 55.5679 30.3545 55.0547 30.4162V22.2289V22.2536ZM56.6556 23.3279V25.8718C57.7432 25.9582 59.1241 25.8842 59.063 24.464C59.0019 23.1303 57.6454 23.3032 56.6556 23.3279Z" fill="black"/>
<path d="M24.8697 30.0327C21.9734 30.9959 18.1606 30.6008 17.8185 26.8837C17.4519 22.9074 21.1058 21.2402 24.4542 22.401L24.1364 23.7224C22.6822 22.9321 20.2992 23.2655 19.6515 24.9696C18.6739 27.5506 20.5925 29.8598 23.2688 29.0942V27.0813H21.9368V25.8711H24.8575V30.0327H24.8697Z" fill="black"/>
<path d="M37.7605 21.7109V25.0699C40.3879 22.8223 42.7831 25.6503 41.9277 28.5276C41.3411 30.4664 38.9093 31.3679 37.565 29.6266L37.5039 30.4293H36.1719V21.7109H37.7728H37.7605ZM38.9337 25.5021C36.8929 25.7614 37.5283 30.4911 39.8136 29.0833C41.1212 28.2806 40.6323 25.2921 38.9337 25.5021Z" fill="black"/>
<path d="M70.8804 40.3704H69.4139L69.3528 39.5677C68.1063 41.3212 65.7356 40.6297 65.1245 38.6044C64.2813 35.8012 66.6888 32.9239 69.2917 35.0109V31.652C69.805 31.7261 70.5015 31.4544 70.8926 31.8495V40.3704H70.8804ZM67.5197 35.5666C66.0899 35.9371 66.1022 39.5306 68.143 39.2836C69.8905 39.0737 69.8172 34.9615 67.5197 35.5666Z" fill="black"/>
<path d="M88.1724 31.6366V40.355H86.8403L86.7792 39.5523C85.4594 41.2194 83.1009 40.6761 82.4898 38.6385C81.6588 35.8723 83.8707 33.0814 86.5715 34.8473V31.8342C86.9625 31.439 87.6591 31.6984 88.1724 31.6366ZM84.9462 35.5636C83.4308 35.9094 83.4675 39.6017 85.5694 39.293C86.7303 39.1201 86.7426 37.3171 86.5715 36.4157C86.4493 35.7735 85.5572 35.4277 84.9462 35.5636Z" fill="black"/>
<path d="M98.4111 21.7077H99.8775L100.012 30.4261L98.6677 30.3643L98.5455 29.6234C95.7592 32.2414 93.0585 28.7589 94.4028 25.7705C95.1115 24.1898 97.1157 23.7823 98.4111 24.9184V21.6953V21.7077ZM96.7735 25.4988C95.1849 25.8569 95.0627 29.5863 97.3968 29.2282C98.9488 28.9812 98.8021 25.0542 96.7735 25.4988Z" fill="black"/>
<path d="M41.4883 40.0977L41.7571 38.764C42.6248 39.258 45.3744 39.789 45.3377 38.1589C45.3133 37.0845 43.5169 36.8129 42.7836 36.3313C41.6838 35.6027 41.305 34.4789 41.9771 33.2811C42.7836 31.8239 45.0567 31.7992 46.4253 32.4043L46.0832 33.6762C45.1789 33.0464 42.637 33.1205 43.3336 34.7135C43.8346 35.862 46.9264 35.4545 46.8286 38.1713C46.7431 40.8633 43.3702 40.8633 41.5005 40.1101L41.4883 40.0977Z" fill="black"/>
<path d="M35.1103 27.4016C35.1103 29.1305 33.7172 30.5259 32.0063 30.5259C30.2955 30.5259 28.9023 29.1305 28.9023 27.4016C28.9023 25.6728 30.2955 24.2773 32.0063 24.2773C33.7172 24.2773 35.1103 25.6728 35.1103 27.4016ZM32.9351 25.7839C32.6174 25.4628 32.1652 25.4135 31.7253 25.4752C29.9166 25.7592 30.2833 30.1925 32.544 29.254C33.595 28.8218 33.6561 26.5002 32.9351 25.7839Z" fill="black"/>
<path d="M76.0735 28.6881L77.3322 24.5265L78.9942 24.3906C77.6866 27.2556 77.3445 31.9606 74.0205 33.0967L73.5439 31.7753C74.3016 31.6024 75.3525 30.8121 75.267 29.9724L73.1406 24.3906L74.8026 24.5265L76.0613 28.6881H76.0735Z" fill="black"/>
<path d="M63.8258 40.3703H62.2249V36.4062C62.2249 36.0358 61.6017 35.5665 61.2229 35.5418C60.8074 35.5171 59.9642 36.0234 59.9642 36.4062V40.3703H58.3633V34.4675H59.6831L59.8908 35.1343C60.7096 34.097 62.4449 33.9735 63.2759 35.0726C63.4348 35.2825 63.8136 36.0728 63.8136 36.2828V40.3703H63.8258Z" fill="black"/>
<path d="M47.881 30.0942C47.881 30.0942 48.1254 30.2918 47.7954 30.4153H46.5489L46.4878 29.7608C43.9216 32.4035 41.0009 27.9949 44.3248 26.7723C44.9969 26.5253 46.9522 26.7229 46.109 25.7227C45.4002 24.8829 43.6527 25.8708 43.5061 25.735L43.3838 24.673C44.557 24.3025 46.329 23.8703 47.3066 24.92C47.4533 25.0682 47.8932 25.9202 47.8932 26.0684C47.8932 27.4145 47.8932 28.7482 47.8932 30.0942H47.881ZM46.4145 27.4886C45.3636 27.4392 43.946 27.8343 44.5448 29.1804C45.8768 29.8843 46.61 28.7976 46.4145 27.4886Z" fill="black"/>
<path d="M93.2158 27.8833H89.3541C89.4397 29.748 91.5294 29.4269 92.8125 29.0935L92.9469 30.1555C90.6373 31.1188 87.741 30.3408 87.7777 27.4264C87.8266 23.0178 94.1323 23.2895 93.2158 27.8833ZM91.8838 26.809C91.8104 24.7837 89.3908 24.8949 89.3541 26.809H91.8838Z" fill="black"/>
<path d="M77.0007 40.3683H75.7542L75.4731 39.8373C74.3366 41.1216 71.9414 40.6153 71.9414 38.6889C71.9414 36.9353 74.0189 36.4537 75.412 36.4784C75.4731 34.9101 73.5667 35.404 72.6258 35.8115L72.3936 34.9348C73.4079 34.095 75.742 33.9839 76.5485 35.1447C76.6829 35.3299 77.0251 36.1079 77.0251 36.2808V40.3683H77.0007ZM75.5342 37.5404C72.6135 36.9353 73.3223 40.6029 75.0698 39.1581C75.522 38.7876 75.5342 38.0961 75.5342 37.5404Z" fill="black"/>
<path d="M56.9226 40.3683H55.6761L55.395 39.8373C54.2585 41.1216 51.8633 40.6153 51.8633 38.6889C51.8633 36.9353 53.9408 36.4537 55.3339 36.4784C55.395 34.9101 53.4886 35.404 52.5476 35.8115L52.3154 34.9348C53.3297 34.095 55.6638 33.9839 56.4704 35.1447C56.6048 35.3299 56.947 36.1079 56.947 36.2808V40.3683H56.9226ZM55.4561 37.5404C52.5354 36.9353 53.2442 40.6029 54.9917 39.1581C55.4439 38.7876 55.4561 38.0961 55.4561 37.5404Z" fill="black"/>
<path d="M63.0328 27.8833C63.2039 29.6616 65.208 29.4887 66.4912 29.0935L66.6134 30.0815C65.1103 30.9459 62.4584 30.6866 61.7741 28.8219C60.7964 26.1545 63.1305 23.0672 65.7824 24.6356C66.7845 25.2283 67.3588 26.8831 66.8211 27.8833H63.0328ZM65.5624 26.809C65.538 24.759 63.2161 24.9196 63.0328 26.809H65.5624Z" fill="black"/>
<path d="M48.2709 35.6623H47.4766V34.4521H48.2709L48.4053 33.0444L49.7373 32.7109V34.4521L51.2038 34.5262V35.6623H49.7373V38.1445C49.7373 38.1445 49.994 39.0707 50.0306 39.1201C50.3606 39.4658 51.0205 39.083 51.1305 39.2806L51.0694 40.4414C50.1284 40.5649 49.0897 40.6884 48.552 39.7499C48.5031 39.6511 48.2709 39.0089 48.2709 38.9595V35.6747V35.6623Z" fill="black"/>
<path d="M84.0415 24.5388L83.7727 25.7366C79.8744 24.3041 79.8255 30.4663 83.9071 29.0955L84.0415 30.2934C81.9885 30.9355 79.5933 30.3551 79.2878 27.91C78.9456 25.1192 81.5974 23.5879 84.0415 24.5264V24.5388Z" fill="black"/>
<path d="M72.4669 24.5484L72.3447 25.7462C68.4708 24.252 68.263 30.4265 72.3447 29.1051L72.4669 30.303C66.1489 32.2294 66.3322 22.7084 72.4669 24.5607V24.5484Z" fill="black"/>
<path d="M86.7181 21.7109H85.1172V30.4417H86.7181V21.7109Z" fill="black"/>
<path d="M50.9368 21.7109H49.3359V30.4417H50.9368V21.7109Z" fill="black"/>
<path d="M27.8001 21.7109H26.1992V30.4417H27.8001V21.7109Z" fill="black"/>
<path d="M78.4536 34.4677H79.7857L79.8468 35.4062C80.3356 34.5788 80.9222 34.2083 81.912 34.3318L81.8509 35.6779C81.7409 35.8384 80.0423 35.7396 80.0423 36.814V40.3705H78.4414V34.4677H78.4536Z" fill="black"/>
</g>
<defs>
<clipPath id="clip0_241_3448">
<rect width="100" height="46" fill="white"/>
</clipPath>
</defs>
</svg>
