<svg width="36" height="36" viewBox="0 0 36 36" fill="none" xmlns="http://www.w3.org/2000/svg">
<g clip-path="url(#clip0_241_3382)">
<path d="M29.3676 7.53206C30.1143 7.53206 30.7196 6.92676 30.7196 6.18009C30.7196 5.43342 30.1143 4.82812 29.3676 4.82812C28.6209 4.82812 28.0156 5.43342 28.0156 6.18009C28.0156 6.92676 28.6209 7.53206 29.3676 7.53206Z" fill="#F3EFE6"/>
<path d="M26.7712 0.785156H9.22708C4.56473 0.785156 0.785156 4.56473 0.785156 9.22708V26.7712C0.785156 31.4335 4.56473 35.2131 9.22708 35.2131H26.7712C31.4335 35.2131 35.2131 31.4335 35.2131 26.7712V9.22708C35.2131 4.56473 31.4335 0.785156 26.7712 0.785156Z" stroke="#F3EFE6" stroke-miterlimit="10"/>
<path d="M18.001 25.0098C22.3508 25.0098 25.877 21.4836 25.877 17.1338C25.877 12.784 22.3508 9.25781 18.001 9.25781C13.6512 9.25781 10.125 12.784 10.125 17.1338C10.125 21.4836 13.6512 25.0098 18.001 25.0098Z" stroke="#F3EFE6" stroke-miterlimit="10"/>
</g>
<defs>
<clipPath id="clip0_241_3382">
<rect width="36" height="36" fill="white"/>
</clipPath>
</defs>
</svg>
