<svg width="20" height="20" viewBox="0 0 20 20" fill="none" xmlns="http://www.w3.org/2000/svg">
<path d="M19 10C19 11.1819 18.7672 12.3522 18.3149 13.4442C17.8626 14.5361 17.1997 15.5282 16.364 16.364C15.5282 17.1997 14.5361 17.8626 13.4442 18.3149C12.3522 18.7672 11.1819 19 10 19C8.8181 19 7.64778 18.7672 6.55585 18.3149C5.46392 17.8626 4.47177 17.1997 3.63604 16.364C2.80031 15.5282 2.13738 14.5361 1.68508 13.4442C1.23279 12.3522 1 11.1819 1 10C1 7.61305 1.94821 5.32387 3.63604 3.63604C5.32387 1.94821 7.61305 1 10 1C12.3869 1 14.6761 1.94821 16.364 3.63604C18.0518 5.32387 19 7.61305 19 10Z" stroke="black" stroke-width="1.25"/>
<path d="M13.602 9.99955C13.602 11.1812 13.5084 12.352 13.3275 13.4437C13.1476 14.5353 12.8821 15.5271 12.5473 16.3631C12.2134 17.1992 11.8165 17.8616 11.38 18.3142C10.9427 18.766 10.4747 18.9991 10.0022 18.9991C9.52974 18.9991 9.06176 18.766 8.62528 18.3142C8.1879 17.8616 7.79102 17.1983 7.45714 16.3631C7.12236 15.5271 6.85687 14.5362 6.67598 13.4437C6.4914 12.305 6.39991 11.1531 6.40239 9.99955C6.40239 8.81791 6.49509 7.64707 6.67598 6.55542C6.85687 5.46378 7.12236 4.47203 7.45714 3.63597C7.79102 2.79991 8.1879 2.13754 8.62438 1.68487C9.06176 1.23399 9.52974 1 10.0022 1C10.4747 1 10.9427 1.23309 11.3791 1.68487C11.8165 2.13754 12.2134 2.80081 12.5473 3.63597C12.8821 4.47203 13.1476 5.46288 13.3275 6.55542C13.5093 7.64707 13.602 8.81791 13.602 9.99955Z" stroke="black" stroke-width="1.25"/>
<path d="M1 10H18.9991" stroke="black" stroke-width="1.25" stroke-linecap="round"/>
</svg>
