<svg width="20" height="20" viewBox="0 0 20 20" fill="none" xmlns="http://www.w3.org/2000/svg">
<path fill-rule="evenodd" clip-rule="evenodd" d="M3.51163 7.08233C3.51163 3.68158 6.45944 1 10 1C13.5406 1 16.4884 3.68158 16.4884 7.08233C16.4884 10.2721 14.51 14.0186 11.3186 15.3824C10.9017 15.56 10.4532 15.6515 10 15.6515C9.54683 15.6515 9.09833 15.56 8.6814 15.3824C5.48995 14.0186 3.51163 10.2729 3.51163 7.08233ZM10 2.25581C7.06726 2.25581 4.76744 4.45767 4.76744 7.08233C4.76744 9.86856 6.52977 13.0977 9.17535 14.2279C9.43629 14.3382 9.71671 14.395 10 14.395C10.2833 14.395 10.5637 14.3382 10.8247 14.2279C13.4702 13.0977 15.2326 9.86856 15.2326 7.08233C15.2326 4.45851 12.9327 2.25581 10 2.25581ZM10 6.44186C9.72245 6.44186 9.45626 6.55212 9.26 6.74838C9.06375 6.94464 8.95349 7.21082 8.95349 7.48837C8.95349 7.76592 9.06375 8.03211 9.26 8.22837C9.45626 8.42463 9.72245 8.53488 10 8.53488C10.2776 8.53488 10.5437 8.42463 10.74 8.22837C10.9363 8.03211 11.0465 7.76592 11.0465 7.48837C11.0465 7.21082 10.9363 6.94464 10.74 6.74838C10.5437 6.55212 10.2776 6.44186 10 6.44186ZM7.69767 7.48837C7.69767 6.87776 7.94024 6.29215 8.37201 5.86038C8.80378 5.42861 9.38939 5.18605 10 5.18605C10.6106 5.18605 11.1962 5.42861 11.628 5.86038C12.0598 6.29215 12.3023 6.87776 12.3023 7.48837C12.3023 8.09899 12.0598 8.68459 11.628 9.11636C11.1962 9.54813 10.6106 9.7907 10 9.7907C9.38939 9.7907 8.80378 9.54813 8.37201 9.11636C7.94024 8.68459 7.69767 8.09899 7.69767 7.48837ZM2.96326 12.5091C3.075 12.6325 3.13318 12.7952 3.12502 12.9614C3.11685 13.1277 3.04301 13.2839 2.91972 13.3957C2.44419 13.826 2.25581 14.238 2.25581 14.6047C2.25581 15.2443 2.86195 16.0321 4.33795 16.696C5.75451 17.334 7.75628 17.7442 10 17.7442C12.2437 17.7442 14.2455 17.334 15.662 16.696C17.138 16.0321 17.7442 15.2443 17.7442 14.6047C17.7442 14.238 17.5558 13.826 17.0803 13.3957C16.9568 13.2839 16.8828 13.1277 16.8746 12.9613C16.8664 12.795 16.9245 12.6322 17.0363 12.5087C17.1481 12.3852 17.3044 12.3113 17.4707 12.303C17.6371 12.2948 17.7999 12.3529 17.9233 12.4647C18.5621 13.0433 19 13.7683 19 14.6047C19 16.0463 17.7316 17.1414 16.1778 17.8413C14.5645 18.5672 12.3793 19 10 19C7.62065 19 5.43553 18.5672 3.82223 17.8413C2.26837 17.1414 1 16.0463 1 14.6047C1 13.7683 1.43786 13.0433 2.07665 12.4647C2.13781 12.4093 2.20929 12.3665 2.28701 12.3388C2.36472 12.311 2.44715 12.2989 2.52957 12.303C2.61199 12.3071 2.69279 12.3274 2.76735 12.3628C2.84191 12.3982 2.90793 12.4479 2.96326 12.5091Z" fill="white"/>
</svg>
