<svg width="150" height="44" viewBox="0 0 150 44" fill="none" xmlns="http://www.w3.org/2000/svg">
<g clip-path="url(#clip0_241_3424)">
<path d="M26.5061 6.6869C26.4585 6.98871 26.284 7.14755 25.9668 7.11578C25.4274 7.06813 24.2853 7.03636 23.6191 7.06813L16.1952 7.22697C15.5607 7.25874 14.9896 7.54466 14.7993 7.57643C14.5296 7.57643 12.8164 6.63925 12.8164 6.51217C12.8164 6.41687 12.8957 6.27391 12.9592 6.27391C13.3716 6.35333 14.8469 6.55983 16.5442 6.51217L19.463 6.43275L19.4313 5.7656C19.4313 5.62264 19.4313 5.59087 19.3044 5.51145L18.4319 5.06669C18.4002 4.95549 18.654 4.71723 18.7967 4.71723L20.2879 4.92373C20.4941 4.95549 20.5099 5.03492 20.4941 5.24141L20.4465 6.40098L23.3653 6.32156C23.9046 6.32156 24.4915 5.82914 24.7136 5.82914C25.1578 5.86091 25.8082 5.9721 26.0937 6.06741C26.4427 6.16271 26.5379 6.33744 26.4903 6.67102L26.5061 6.6869ZM14.022 5.4638C17.0835 4.51073 19.4947 3.25586 21.5252 1.73095L17.7181 1.90567C17.3056 1.90567 16.9566 2.25513 16.7504 2.25513C16.5442 2.25513 15.2117 1.42914 15.2117 1.28618C15.2117 1.17499 15.291 1.0638 15.3703 1.0638C16.0366 1.14322 16.8932 1.19087 17.6705 1.17499H18.0036L23.1432 0.984375C23.6508 0.984375 23.7936 1.12734 23.4287 1.47679C22.6038 2.22336 21.6997 2.87463 20.7162 3.44647L22.0011 3.79593C22.699 3.923 22.7625 3.57354 23.5239 3.79593C24.2695 4.00243 24.8564 4.35188 25.0467 4.76488C25.1578 5.03492 25.0467 5.32084 24.7771 5.41614L19.8278 3.923C18.1939 4.76488 16.338 5.38437 14.3392 5.84502L14.022 5.47968V5.4638ZM24.1584 9.149C24.1584 9.40315 23.9998 9.56199 23.6667 9.54611C23.1908 9.54611 22.4928 9.51434 21.8266 9.54611L17.7974 9.67318C17.3532 9.67318 17.1153 9.99087 16.7821 9.99087C16.5759 9.99087 15.2593 9.2443 15.2593 9.11723C15.2593 8.99015 15.3228 8.91073 15.4021 8.91073C16.0049 9.00604 16.8456 9.08546 17.6229 9.05369L21.6203 8.9425C22.3183 8.89484 22.4769 8.57715 22.699 8.57715C23.0004 8.57715 23.4287 8.62481 23.6825 8.68835C23.9839 8.76777 24.1584 8.91073 24.1425 9.18076L24.1584 9.149ZM22.35 11.8652C22.35 12.9454 21.3348 13.7237 19.8278 13.7237C18.3208 13.7237 17.3373 12.9295 17.3373 11.8652C17.3373 10.801 18.3684 9.99087 19.812 9.97499C21.4141 9.97499 22.35 10.7692 22.35 11.8652ZM19.3361 8.5295C19.0188 8.48185 18.2257 7.91001 18.0988 7.62409C18.0988 7.56055 18.1939 7.48113 18.2574 7.49701C18.9395 7.67174 20.034 7.78293 20.8431 7.8147C21.2555 7.8147 21.4141 7.94178 21.4141 8.18004C21.4141 8.46596 21.2872 8.5295 20.9224 8.56127C20.5575 8.60892 19.812 8.60892 19.3361 8.5295ZM21.3824 11.8652C21.3824 11.1504 20.732 10.658 19.812 10.658C18.8919 10.658 18.2891 11.1504 18.2891 11.8652C18.2891 12.58 18.9078 13.0248 19.8278 13.0248C20.7479 13.0248 21.3824 12.5642 21.3824 11.8652Z" fill="white"/>
<path d="M40.816 7.75089C40.7684 8.05269 40.5939 8.19565 40.2767 8.16388C39.7373 8.11623 38.5952 8.06858 37.929 8.08446L30.6796 8.22742C30.0451 8.22742 29.5533 8.57688 29.2678 8.59277C28.9981 8.59277 27.3008 7.60793 27.3008 7.48085C27.3008 7.38555 27.3801 7.24259 27.4435 7.24259C27.856 7.32201 29.3312 7.57616 31.0286 7.52851L37.5958 7.38555C38.2621 7.38555 38.7062 6.9249 39.0076 6.89313C39.4518 6.9249 40.118 7.05197 40.4194 7.14728C40.7208 7.24259 40.8477 7.4332 40.8001 7.75089H40.816ZM38.7221 12.8975C38.7221 13.2469 38.5793 13.4058 38.1986 13.4058H32.0121C31.1713 13.4058 31.1396 12.8498 31.1238 12.135L31.092 10.7054V10.5624C31.092 10.4354 31.092 10.4354 30.9334 10.3718L29.7119 9.89529C29.7119 9.70468 29.9499 9.4823 30.0451 9.4823L31.9645 9.62526C32.2183 9.65703 32.2342 9.68879 32.2342 9.89529V12.7068H36.184C36.5013 12.7068 37.2627 12.2938 37.2944 12.2938C38.2938 12.2938 38.738 12.405 38.738 12.9133L38.7221 12.8975ZM30.9017 3.57327C30.9017 1.92129 32.3611 0.761719 34.0267 0.761719C35.6923 0.761719 37.1834 1.9054 37.1834 3.57327C37.1834 5.24114 35.7399 6.25775 34.0267 6.25775C32.3135 6.25775 30.9017 5.25703 30.9017 3.57327ZM31.9486 3.57327C31.9486 4.76461 32.9797 5.41587 34.0267 5.41587C35.0736 5.41587 36.1364 4.76461 36.1364 3.57327C36.1364 2.38194 35.0895 1.65125 34.0267 1.65125C32.9639 1.65125 31.9486 2.36605 31.9486 3.57327Z" fill="white"/>
<path d="M50.8567 7.2277C49.08 7.2277 47.6523 6.08401 47.6523 4.43203C47.6523 2.78004 49.08 1.62048 50.8567 1.62048C52.6333 1.62048 54.0451 2.76416 54.0451 4.43203C54.0451 6.0999 52.6809 7.2277 50.8567 7.2277ZM50.8567 6.33817C52.0781 6.33817 52.9347 5.62336 52.9347 4.43203C52.9347 3.24069 52.0622 2.51001 50.8567 2.51001C49.6511 2.51001 48.7627 3.25658 48.7627 4.43203C48.7627 5.60748 49.6669 6.33817 50.8567 6.33817ZM58.8516 13.0414C58.8516 13.3591 58.6454 13.5021 58.2647 13.5021H52.7126C51.8877 13.5021 51.8243 12.9938 51.8084 12.1995V11.1194L50.7456 10.7223C50.7456 10.5317 50.936 10.3411 51.0153 10.3411L52.8554 10.5476L56.9004 10.4522L56.9322 8.91145L53.3313 9.03853C52.9188 9.03853 52.5381 9.38799 52.3478 9.38799C52.205 9.38799 50.8091 8.54611 50.8091 8.48257C50.8091 8.38726 50.8884 8.26019 50.9677 8.26019C51.3484 8.30784 52.6968 8.38726 53.2995 8.3555L57.7729 8.21253C58.0584 8.21253 58.1748 8.33432 58.1219 8.57788L57.646 10.4522C57.8998 10.4999 58.1536 10.5952 58.1536 10.8176C58.1536 11.04 58.0267 11.167 57.7888 11.167L52.8554 11.1988V12.7714H56.3452C56.7735 12.7714 57.2018 12.4219 57.2812 12.4219C57.7094 12.4219 58.2171 12.4855 58.4709 12.5331C58.7088 12.5966 58.8357 12.7873 58.8357 13.0255L58.8516 13.0414ZM56.9798 1.14394L55.6949 0.333833C55.6949 0.333833 55.9487 -0.015625 56.0597 -0.015625C56.2818 -0.015625 57.6619 0.381487 57.9633 0.492678C58.1113 0.545627 58.1853 0.667408 58.1853 0.858021V2.09701L58.1536 5.73456L58.1219 6.27463C58.0902 6.83058 57.7412 7.57716 57.3287 7.57716L57.186 7.48185L57.1067 5.73456L57.0591 2.09701V1.30279C57.0591 1.22866 57.0273 1.17571 56.9639 1.14394H56.9798Z" fill="white"/>
<path d="M63.3075 7.52924C63.1964 7.91047 62.9426 8.24404 62.6412 8.24404L62.5143 8.14874L62.1971 3.33574C62.1971 3.19278 62.1971 3.20866 62.0543 3.12924L61.0391 2.60505C61.0391 2.41444 61.3563 2.19206 61.4198 2.19206L63.2123 2.44621L67.6698 2.3509C68.3043 2.3509 68.2567 2.28736 68.1615 2.87509L67.5746 6.76679C67.8443 6.76679 68.1615 6.92563 68.1615 7.19567C68.1615 7.43393 68.0505 7.52924 67.6063 7.52924H63.3233H63.3075ZM66.8449 6.78267L66.9084 3.12924L63.2916 3.1769L63.3709 6.84621L66.8608 6.78267H66.8449ZM72.5873 12.8982C72.5873 13.2477 72.4445 13.4065 72.0638 13.4065H66.3373C65.4966 13.4065 65.4648 12.8505 65.449 12.1357L65.4172 10.4838V10.3408C65.4172 10.2137 65.4172 10.2137 65.2586 10.1502L64.0372 9.67365C64.0372 9.48303 64.2751 9.26065 64.3703 9.26065L66.2897 9.40361C66.5435 9.43538 66.5594 9.46715 66.5594 9.67365V12.7076H70.0492C70.4141 12.7076 71.0803 12.2946 71.1438 12.2946C71.5403 12.2946 71.8417 12.3264 72.0797 12.374C72.4287 12.4375 72.6031 12.6123 72.5873 12.93V12.8982ZM74.5067 5.67076C74.5067 6.0361 74.2846 6.14729 73.9356 6.14729H71.7307V9.18123L71.699 9.73718C71.6672 10.2931 71.3183 11.0397 70.9058 11.0397L70.763 10.9444L70.6837 9.18123L70.6361 2.11264V1.31841C70.6361 1.24428 70.6044 1.19134 70.541 1.15957L69.2561 0.349458C69.2561 0.349458 69.5099 0 69.6209 0C69.843 0 71.2231 0.397112 71.5245 0.508303C71.6725 0.561251 71.7465 0.683032 71.7465 0.873646V2.11264V5.54368H72.3969C72.6507 5.54368 73.2694 5.08303 73.428 5.08303C74.2529 5.08303 74.5067 5.22599 74.5067 5.68664V5.67076Z" fill="white"/>
<path d="M84.1848 7.21181C82.3923 7.21181 80.9805 6.0999 80.9805 4.35261C80.9805 2.60531 82.3923 1.44575 84.1848 1.44575C85.9773 1.44575 87.4684 2.6212 87.4684 4.35261C87.4684 6.08401 86.0249 7.21181 84.1848 7.21181ZM85.6283 10.6587C84.7876 11.723 83.7406 12.7237 82.3288 13.6133L82.0116 13.375C83.5027 12.1837 84.6607 10.6587 85.3269 9.24502C85.3586 9.08618 84.9779 8.76849 84.502 8.48257C84.4703 8.37138 84.8034 8.149 84.9621 8.16488C85.2635 8.19665 86.2152 8.60965 86.4849 8.81614C86.6277 8.92734 86.6594 9.05441 86.4215 9.45152C86.2946 9.67391 86.1518 9.89629 86.009 10.1187L86.3739 10.6429C86.6753 11.0559 86.7863 10.754 87.1036 11.1829C87.405 11.58 87.4843 12.0407 87.4208 12.3584C87.3732 12.5649 87.167 12.6761 86.9608 12.5966L85.6125 10.6429L85.6283 10.6587ZM84.1848 6.33817C85.4062 6.33817 86.358 5.55983 86.358 4.33672C86.358 3.11362 85.4062 2.30351 84.1848 2.30351C82.9633 2.30351 82.0909 3.06596 82.0909 4.33672C82.0909 5.60748 82.9951 6.33817 84.1848 6.33817ZM92.9253 13.2003C92.8618 13.4544 92.6556 13.5656 92.4177 13.5338L90.1968 10.6111C89.483 11.6753 88.4836 12.7555 87.0877 13.7403L86.7546 13.4862C88.2774 12.136 89.3085 10.5317 89.9113 9.13383C89.943 8.9591 89.483 8.54611 89.023 8.2443C88.9913 8.13311 89.3085 7.89484 89.4671 7.92661C89.7685 7.99015 90.8789 8.38726 91.0852 8.60965C91.2121 8.73672 91.1803 8.87968 90.9583 9.32445C90.8472 9.53095 90.7362 9.75333 90.5934 9.97571L91.4817 11.0717C91.8307 11.5006 91.9894 11.1512 92.4177 11.6912C92.8459 12.2472 93.0046 12.8349 92.9094 13.2003H92.9253ZM90.4031 1.14394L89.1182 0.333833C89.1182 0.333833 89.372 -0.015625 89.483 -0.015625C89.7051 -0.015625 91.0852 0.381487 91.3866 0.492678C91.5346 0.545626 91.6086 0.667407 91.6086 0.858021V2.09701L91.5769 5.84575L91.5452 6.38582C91.5135 6.94178 91.1645 7.68835 90.752 7.68835L90.6093 7.59304L90.53 5.84575L90.4824 2.09701V1.30279C90.4824 1.22866 90.4506 1.17571 90.3872 1.14394H90.4031Z" fill="white"/>
<path d="M94.2893 11.0705C94.2893 10.9752 94.3686 10.8323 94.4321 10.8323C94.8445 10.9117 96.3039 11.1182 98.0012 11.0864L104.759 10.9752C105.33 10.9752 105.726 10.5622 106.091 10.5146C106.583 10.5622 107.233 10.6734 107.551 10.7846C107.868 10.8958 107.916 11.0705 107.868 11.3882C107.82 11.69 107.646 11.833 107.329 11.8012C106.789 11.7536 105.679 11.69 104.997 11.7059L97.6364 11.833C97.0177 11.833 96.4784 12.1507 96.2246 12.1666C95.9549 12.1666 94.2734 11.1976 94.2734 11.0705H94.2893ZM97.4778 4.98679C97.4778 2.87415 99.2227 1.73047 101.079 1.73047C102.935 1.73047 104.711 2.85827 104.711 4.98679C104.711 7.11531 102.95 8.1478 101.079 8.1478C99.2068 8.1478 97.4778 7.08354 97.4778 4.98679ZM103.633 4.98679C103.633 3.44599 102.411 2.65177 101.079 2.65177C99.7462 2.65177 98.5564 3.46188 98.5564 4.98679C98.5564 6.5117 99.762 7.29004 101.079 7.29004C102.395 7.29004 103.633 6.49581 103.633 4.98679Z" fill="white"/>
<path d="M122.542 6.60768C122.542 6.97302 122.352 7.11599 121.971 7.11599H119.544V11.929C119.449 13.0727 119.068 13.7716 118.656 13.8351L118.513 13.7398L118.481 11.3889V8.35497C116.816 9.19685 114.658 9.97519 111.866 10.5153C111.486 10.5947 111.295 10.5947 111.2 10.5947C111.073 10.5947 111.01 10.5629 110.931 10.4517C110.788 10.2293 110.486 9.64162 110.486 9.49866L110.407 6.48061C110.407 6.39589 110.359 6.33235 110.264 6.28999L109.312 5.84523C109.312 5.65461 109.566 5.41635 109.661 5.43223L111.438 5.68638L114.516 5.57519L114.547 2.97014L112.057 3.1131C111.692 3.14487 111.216 3.49433 111.026 3.49433C110.883 3.49433 109.439 2.54126 109.439 2.46183C109.439 2.36653 109.519 2.25534 109.598 2.25534C110.026 2.31887 110.994 2.38241 111.644 2.35064L115.436 2.20768C115.864 2.20768 115.88 2.20768 115.816 2.57303L115.245 5.57519C115.531 5.62284 115.848 5.79757 115.848 6.03584C115.848 6.32176 115.721 6.36942 115.309 6.36942L111.549 6.40118V9.48277C114.325 9.10154 116.609 8.5297 118.465 7.92609L118.418 1.88999V1.38169C118.418 1.28638 118.381 1.21755 118.307 1.17519L117.022 0.412737C117.022 0.31743 117.276 0.015625 117.371 0.015625C117.593 0.015625 118.878 0.380968 119.37 0.539813C119.486 0.582171 119.544 0.661594 119.544 0.77808V6.44884H120.226C120.591 6.44884 121.146 5.95642 121.257 5.95642C122.352 5.95642 122.526 6.16292 122.526 6.62357L122.542 6.60768Z" fill="white"/>
<path d="M136.645 11.5781C136.581 11.8799 136.439 12.0228 136.106 11.9911C135.566 11.9434 134.456 11.9117 133.774 11.9275L126.429 12.0705C125.795 12.0705 125.287 12.4041 125.049 12.42C124.779 12.42 123.082 11.451 123.082 11.3239C123.082 11.2286 123.161 11.0857 123.225 11.0857C123.653 11.181 125.097 11.4034 126.81 11.3557L128.777 11.308L128.698 7.40046C128.698 7.2575 128.713 7.22573 128.586 7.14631L127.587 6.55859C127.587 6.46328 127.809 6.19324 127.952 6.19324L129.633 6.5427C129.84 6.59035 129.84 6.65389 129.84 6.86039L129.744 11.2922L133.536 11.1969C134.107 11.1969 134.535 10.768 134.836 10.7362C135.328 10.768 135.994 10.8633 136.312 10.9745C136.597 11.0698 136.677 11.2445 136.629 11.5781H136.645ZM124.795 2.3492C124.795 2.23801 124.875 2.12682 124.954 2.12682C125.684 2.22212 126.921 2.25389 127.762 2.23801L134.265 2.01562C134.868 2.01562 134.9 2.01563 134.836 2.5557C134.472 5.08133 133.726 7.43223 132.869 9.67194L132.283 9.56075C132.822 7.35281 133.218 5.1131 133.425 2.82573L128.126 2.95281H127.92C127.413 3.00046 126.857 3.42934 126.651 3.42934C126.429 3.42934 124.795 2.49216 124.795 2.33331V2.3492Z" fill="white"/>
<path d="M0.412437 42.0919C0.491751 41.7107 0.53934 41.2342 0.53934 40.6623V27.653C0.53934 27.0811 0.491751 26.6046 0.412437 26.2075C0.333122 25.8262 0.190355 25.3338 0 24.7461H5.01269C4.82234 25.3338 4.67957 25.8262 4.60025 26.2234C4.52094 26.6205 4.47335 27.097 4.47335 27.6688V31.5923C4.47335 32.3389 4.63198 32.9743 4.93338 33.4984C5.31409 33.1649 5.74239 32.8948 6.21827 32.7201C6.69416 32.5454 7.18591 32.4501 7.69353 32.4501C8.20114 32.4501 8.69289 32.5454 9.16878 32.7201C9.64467 32.8948 10.0888 33.1649 10.4537 33.4984C10.7551 32.9743 10.9137 32.3389 10.9137 31.5923V27.6688C10.9137 27.097 10.8661 26.6205 10.7868 26.2234C10.7075 25.8262 10.5647 25.3338 10.3744 24.7461H15.3871C15.1967 25.3338 15.0539 25.8262 14.9746 26.2075C14.8953 26.5887 14.8477 27.0652 14.8477 27.653V40.6623C14.8477 41.2342 14.8953 41.7107 14.9746 42.0919C15.0539 42.4732 15.1967 42.9656 15.3871 43.5533H10.3744C10.5647 42.9656 10.7075 42.4732 10.7868 42.0761C10.8661 41.6789 10.9137 41.2024 10.9137 40.6306V36.7389C10.9137 35.9923 10.7551 35.3569 10.4537 34.8327C10.073 35.1663 9.64467 35.4363 9.16878 35.6111C8.69289 35.7858 8.20114 35.8811 7.69353 35.8811C7.18591 35.8811 6.69416 35.7858 6.21827 35.6111C5.74239 35.4363 5.31409 35.1663 4.93338 34.8327C4.63198 35.3569 4.47335 35.9923 4.47335 36.7389V40.6306C4.47335 41.2024 4.52094 41.6948 4.60025 42.0761C4.67957 42.4732 4.82234 42.9656 5.01269 43.5533H0C0.190355 42.9656 0.333122 42.4732 0.412437 42.0919ZM4.34645 34.1497C3.87056 33.4667 3.61675 32.6248 3.61675 31.5923V27.6688C3.61675 26.9699 3.69607 26.2869 3.8547 25.6039H1.158C1.31662 26.2869 1.39594 26.9699 1.39594 27.653V40.6623C1.39594 41.3454 1.31662 42.0284 1.158 42.7114H3.87056C3.71193 42.0284 3.63261 41.3454 3.63261 40.6465V36.7548C3.63261 35.754 3.87056 34.8963 4.36231 34.1815L4.34645 34.1497ZM7.69353 35.0233C8.62944 35.0233 9.375 34.7533 9.94607 34.1974C9.375 33.6255 8.62944 33.3396 7.69353 33.3396C6.75761 33.3396 6.01206 33.6096 5.44099 34.1656C6.01206 34.7374 6.75761 35.0233 7.69353 35.0233ZM11.7703 36.7389V40.6306C11.7703 41.3295 11.691 42.0125 11.5324 42.6956H14.2449C14.0863 42.0125 14.007 41.3295 14.007 40.6465V27.6371C14.007 26.954 14.0863 26.271 14.2449 25.588H11.5324C11.691 26.271 11.7703 26.954 11.7703 27.653V31.5764C11.7703 32.5771 11.5324 33.4349 11.0406 34.1497C11.5165 34.8327 11.7703 35.6746 11.7703 36.7071V36.7389Z" fill="white"/>
<path d="M19.0179 29.3216C19.6366 27.8602 20.5249 26.6689 21.6671 25.7952C22.8092 24.9057 24.0782 24.4609 25.5218 24.4609C26.2039 24.4609 26.8384 24.5404 27.4253 24.6992C28.0122 24.5404 28.6468 24.4609 29.3289 24.4609C30.7565 24.4609 32.0414 24.9057 33.1836 25.7952C34.3257 26.6848 35.1982 27.8602 35.8327 29.3216C36.4513 30.783 36.7686 32.3714 36.7686 34.0552C36.7686 35.7389 36.4037 37.4227 35.6899 38.9317C34.9761 40.4407 33.9133 41.6638 32.5173 42.601C31.1055 43.5382 29.424 43.9988 27.4253 43.9988C25.4266 43.9988 23.761 43.5382 22.3492 42.601C20.9374 41.6638 19.8745 40.4407 19.1607 38.9317C18.4469 37.4227 18.082 35.7866 18.082 34.0552C18.082 32.3238 18.3993 30.7988 19.0179 29.3216ZM24.2686 40.4566C23.3644 39.8053 22.6664 38.9158 22.1747 37.8039C21.6829 36.692 21.445 35.4371 21.445 34.0552C21.445 32.1808 21.8416 30.4494 22.6347 28.8609C23.4278 27.2725 24.5224 26.097 25.9025 25.3346H25.5218C24.2527 25.3346 23.1106 25.7317 22.1112 26.51C21.1119 27.3043 20.3346 28.3526 19.7794 29.6869C19.2242 31.0212 18.9545 32.4826 18.9545 34.0552C18.9545 35.6277 19.2718 37.1844 19.9221 38.5664C20.5725 39.9483 21.5243 41.0443 22.8092 41.8862C24.0941 42.7281 25.6328 43.1411 27.4412 43.1411C29.2495 43.1411 30.7882 42.7281 32.0731 41.8862C33.358 41.0602 34.3098 39.9483 34.9602 38.5664C35.6106 37.1844 35.9278 35.6754 35.9278 34.0552C35.9278 32.4349 35.6582 31.0212 35.103 29.6869C34.5478 28.3526 33.7705 27.2884 32.7711 26.51C31.7718 25.7158 30.6296 25.3346 29.3606 25.3346H28.9799C30.36 26.097 31.4386 27.2884 32.2476 28.8609C33.0408 30.4494 33.4374 32.1808 33.4374 34.0552C33.4374 35.4212 33.1994 36.6602 32.7077 37.788C32.2318 38.9158 31.5338 39.8053 30.6296 40.4566C29.7254 41.1079 28.6785 41.4414 27.4729 41.4414C26.2673 41.4414 25.1886 41.1079 24.3003 40.4566H24.2686ZM22.9044 37.4386C23.3168 38.4234 23.9037 39.2017 24.6969 39.7418C25.4742 40.2978 26.3942 40.5678 27.4412 40.5678C28.4881 40.5678 29.3764 40.2978 30.1537 39.7418C30.9152 39.1858 31.5179 38.4075 31.9304 37.4227C32.3428 36.4378 32.549 35.31 32.549 34.0552C32.549 32.0061 32.089 30.2111 31.169 28.6544C30.2489 27.0978 28.9957 26.0812 27.4253 25.5887C25.8549 26.0653 24.6017 27.0978 23.6817 28.6544C22.7616 30.2111 22.3016 32.0061 22.3016 34.0552C22.3016 35.3259 22.5078 36.4537 22.9202 37.4386H22.9044Z" fill="white"/>
<path d="M39.846 42.0919C39.9253 41.7107 39.9729 41.2342 39.9729 40.6623V27.653C39.9729 27.0811 39.9253 26.6046 39.846 26.2075C39.7667 25.8262 39.6239 25.3338 39.4336 24.7461H44.4463C44.2559 25.3338 44.1132 25.8262 44.0338 26.2234C43.9545 26.6205 43.9069 27.097 43.9069 27.6688V31.5923C43.9069 32.3389 44.0656 32.9743 44.367 33.4984C44.7477 33.1649 45.176 32.8948 45.6519 32.7201C46.1278 32.5454 46.6195 32.4501 47.1271 32.4501C47.6347 32.4501 48.1265 32.5454 48.6024 32.7201C49.0783 32.8948 49.5224 33.1649 49.8873 33.4984C50.1887 32.9743 50.3473 32.3389 50.3473 31.5923V27.6688C50.3473 27.097 50.2997 26.6205 50.2204 26.2234C50.1411 25.8262 49.9983 25.3338 49.808 24.7461H54.8207C54.6303 25.3338 54.4875 25.8262 54.4082 26.2075C54.3289 26.5887 54.2813 27.0652 54.2813 27.653V40.6623C54.2813 41.2342 54.3289 41.7107 54.4082 42.0919C54.4875 42.4732 54.6303 42.9656 54.8207 43.5533H49.808C49.9983 42.9656 50.1411 42.4732 50.2204 42.0761C50.2997 41.6789 50.3473 41.2024 50.3473 40.6306V36.7389C50.3473 35.9923 50.1887 35.3569 49.8873 34.8327C49.5066 35.1663 49.0783 35.4363 48.6024 35.6111C48.1265 35.7858 47.6347 35.8811 47.1271 35.8811C46.6195 35.8811 46.1278 35.7858 45.6519 35.6111C45.176 35.4363 44.7477 35.1663 44.367 34.8327C44.0656 35.3569 43.9069 35.9923 43.9069 36.7389V40.6306C43.9069 41.2024 43.9545 41.6948 44.0338 42.0761C44.1132 42.4732 44.2559 42.9656 44.4463 43.5533H39.4336C39.6239 42.9656 39.7667 42.4732 39.846 42.0919ZM43.78 34.1497C43.3042 33.4667 43.0503 32.6248 43.0503 31.5923V27.6688C43.0503 26.9699 43.1297 26.2869 43.2883 25.6039H40.5757C40.7344 26.2869 40.8137 26.9699 40.8137 27.653V40.6623C40.8137 41.3454 40.7344 42.0284 40.5757 42.7114H43.2883C43.1297 42.0284 43.0503 41.3454 43.0503 40.6465V36.7548C43.0503 35.754 43.2883 34.8963 43.78 34.1815V34.1497ZM47.143 35.0233C48.0789 35.0233 48.8245 34.7533 49.3955 34.1974C48.8245 33.6255 48.0789 33.3396 47.143 33.3396C46.2071 33.3396 45.4615 33.6096 44.8904 34.1656C45.4615 34.7374 46.2071 35.0233 47.143 35.0233ZM51.2198 36.7389V40.6306C51.2198 41.3295 51.1404 42.0125 50.9818 42.6956H53.6944C53.5357 42.0125 53.4564 41.3295 53.4564 40.6465V27.6371C53.4564 26.954 53.5357 26.271 53.6944 25.588H50.9818C51.1404 26.271 51.2198 26.954 51.2198 27.653V31.5764C51.2198 32.5771 50.9818 33.4349 50.4901 34.1497C50.966 34.8327 51.2198 35.6746 51.2198 36.7071V36.7389Z" fill="white"/>
<path d="M58.4554 29.3216C59.0741 27.8602 59.9624 26.6689 61.1046 25.7952C62.2467 24.9057 63.5157 24.4609 64.9593 24.4609C65.6414 24.4609 66.2759 24.5404 66.8628 24.6992C67.4497 24.5404 68.0843 24.4609 68.7664 24.4609C70.194 24.4609 71.4789 24.9057 72.6211 25.7952C73.7632 26.6848 74.6357 27.8602 75.2702 29.3216C75.8888 30.783 76.2061 32.3714 76.2061 34.0552C76.2061 35.7389 75.8412 37.4227 75.1274 38.9317C74.4136 40.4407 73.3508 41.6638 71.9548 42.601C70.543 43.5382 68.8615 43.9988 66.8628 43.9988C64.8641 43.9988 63.1985 43.5382 61.7867 42.601C60.3749 41.6638 59.312 40.4407 58.5982 38.9317C57.8844 37.4227 57.5195 35.7866 57.5195 34.0552C57.5195 32.3238 57.8368 30.7988 58.4554 29.3216ZM63.7061 40.4566C62.8019 39.8053 62.1039 38.9158 61.6122 37.8039C61.1204 36.692 60.8825 35.4371 60.8825 34.0552C60.8825 32.1808 61.2791 30.4494 62.0722 28.8609C62.8653 27.2725 63.9599 26.097 65.34 25.3346H64.9593C63.6902 25.3346 62.5481 25.7317 61.5487 26.51C60.5494 27.3043 59.7721 28.3526 59.2169 29.6869C58.6617 31.0212 58.392 32.4826 58.392 34.0552C58.392 35.6277 58.7093 37.1844 59.3596 38.5664C60.01 39.9483 60.9618 41.0443 62.2467 41.8862C63.5316 42.7122 65.0703 43.1411 66.8787 43.1411C68.687 43.1411 70.2258 42.7281 71.5107 41.8862C72.7956 41.0443 73.7473 39.9483 74.3977 38.5664C75.0481 37.1844 75.3653 35.6754 75.3653 34.0552C75.3653 32.4349 75.0957 31.0212 74.5405 29.6869C73.9853 28.3526 73.208 27.2884 72.2086 26.51C71.2093 25.7158 70.0671 25.3346 68.7981 25.3346H68.4174C69.7975 26.097 70.8761 27.2884 71.6851 28.8609C72.4783 30.4494 72.8749 32.1808 72.8749 34.0552C72.8749 35.4212 72.6369 36.6602 72.1452 37.788C71.6693 38.9158 70.9713 39.8053 70.0671 40.4566C69.1629 41.1079 68.116 41.4414 66.9104 41.4414C65.7048 41.4414 64.6261 41.1079 63.7378 40.4566H63.7061ZM62.3577 37.4386C62.7702 38.4234 63.3571 39.2017 64.1502 39.7418C64.9275 40.2978 65.8476 40.5678 66.8945 40.5678C67.9415 40.5678 68.8298 40.2978 69.6071 39.7418C70.3685 39.1858 70.9713 38.4075 71.3837 37.4227C71.7962 36.4378 72.0024 35.31 72.0024 34.0552C72.0024 32.0061 71.5424 30.2111 70.6223 28.6544C69.7023 27.0978 68.4491 26.0812 66.8787 25.5887C65.3082 26.0653 64.0551 27.0978 63.135 28.6544C62.215 30.2111 61.7549 32.0061 61.7549 34.0552C61.7549 35.3259 61.9612 36.4537 62.3736 37.4386H62.3577Z" fill="white"/>
<path d="M79.2992 42.0919C79.3785 41.7107 79.4261 41.2342 79.4261 40.6623V27.653C79.4261 27.0811 79.3785 26.6046 79.2992 26.2075C79.2198 25.8262 79.0771 25.3338 78.8867 24.7461H86.1837C87.9921 24.7461 89.5625 25.0638 90.8791 25.715C92.1957 26.3663 93.211 27.2558 93.9248 28.3836C94.6386 29.5273 94.9876 30.8298 94.9876 32.323C94.9876 32.9425 94.94 33.562 94.829 34.1497C94.94 34.7374 94.9876 35.3569 94.9876 35.9764C94.9876 37.4696 94.6386 38.7721 93.9248 39.9158C93.211 41.0595 92.1957 41.949 90.8791 42.5844C89.5625 43.2197 87.9921 43.5533 86.1837 43.5533H78.8867C79.0771 42.9656 79.2198 42.4732 79.2992 42.0919ZM91.8467 41.0118C93.2268 39.884 93.9724 38.375 94.0834 36.4688C93.4172 37.8984 92.4019 39.0421 91.0219 39.8999C89.6418 40.7576 87.9603 41.1865 85.9457 41.1865C84.7877 41.1865 83.6297 41.0912 82.4876 40.8847V27.3988C83.6297 27.2082 84.7877 27.097 85.9457 27.097C87.9445 27.097 89.6418 27.5259 91.0219 28.3836C92.4019 29.2414 93.4172 30.3851 94.0834 31.8147C93.9724 29.9244 93.2268 28.3995 91.8467 27.2717C90.4667 26.1439 88.5631 25.5721 86.1678 25.5721H80.0289C80.1875 26.2551 80.2668 26.9382 80.2668 27.6212V40.6306C80.2668 41.3136 80.1875 41.9966 80.0289 42.6797H86.1678C88.5631 42.6797 90.4508 42.1078 91.8467 40.98V41.0118ZM85.9616 40.3288C88.2459 40.3288 90.0701 39.7569 91.4184 38.6291C92.7668 37.4854 93.6075 36.0082 93.9565 34.1497C93.6234 32.3071 92.7668 30.814 91.4184 29.6703C90.0701 28.5266 88.2459 27.9706 85.9616 27.9706C85.105 27.9706 84.2325 28.0342 83.3601 28.1613V40.1382C84.2325 40.2652 85.105 40.3288 85.9616 40.3288Z" fill="white"/>
<path d="M100.984 27.1801C101.095 26.8147 101.159 26.4811 101.175 26.1635C101.19 25.8458 101.206 25.3692 101.206 24.7656H102.285C102.872 24.7656 103.364 24.8609 103.744 25.0674C104.125 25.258 104.458 25.5757 104.728 25.9728C104.997 25.5598 105.331 25.258 105.711 25.0674C106.092 24.8768 106.584 24.7656 107.171 24.7656H108.249C108.249 25.3692 108.249 25.8458 108.281 26.1635C108.313 26.4811 108.36 26.8306 108.471 27.1801L113.405 43.5728H108.789C108.789 42.9057 108.789 42.4133 108.757 42.0797C108.741 41.7461 108.662 41.3808 108.551 40.9678L108.011 39.2523H101.46L100.921 40.9678C100.81 41.3331 100.746 41.6667 100.714 41.9685C100.683 42.2862 100.667 42.588 100.667 42.9057V43.557H96.0508L100.984 27.1642V27.1801ZM101.333 36.5996L103.966 27.7837C104.03 27.5136 104.141 27.2118 104.268 26.8941C104.046 26.4176 103.808 26.0682 103.522 25.8934C103.237 25.7028 102.824 25.6075 102.285 25.6075H102.063C102.031 26.3223 101.936 26.9259 101.793 27.4342L97.2405 42.6992H99.8103C99.8103 41.9685 99.9055 41.2855 100.112 40.6819L100.81 38.3786H108.646L109.344 40.6819C109.503 41.2537 109.598 41.9209 109.645 42.6992H112.215L107.647 27.4342C107.504 26.9259 107.409 26.3223 107.377 25.6075H107.171C106.631 25.6075 106.219 25.7028 105.933 25.8934C105.648 26.084 105.394 26.4176 105.188 26.8941C105.315 27.2118 105.41 27.5136 105.489 27.7837L108.122 36.5996H101.365H101.333ZM106.964 35.7418L104.712 28.2443L102.459 35.7418H106.964Z" fill="white"/>
<path d="M119.844 30.7504V40.6306C119.844 41.2024 119.892 41.6948 119.971 42.0761C120.05 42.4732 120.193 42.9656 120.384 43.5533H115.387C115.577 42.9656 115.72 42.4732 115.799 42.0919C115.878 41.7107 115.926 41.2342 115.926 40.6623V27.653C115.926 26.9223 115.815 25.9533 115.609 24.7461H116.148C116.846 24.7461 117.401 24.8891 117.798 25.175C118.194 25.4609 118.607 26.001 119.019 26.8111C119.115 26.2233 119.321 25.7309 119.67 25.3338C120.003 24.9367 120.463 24.7461 121.034 24.7461H121.462C121.557 25.3974 121.637 25.8898 121.732 26.2234C121.827 26.5569 121.97 26.9699 122.192 27.4306L126.649 37.5649V27.6847C126.649 27.1129 126.602 26.6363 126.523 26.2392C126.443 25.8421 126.3 25.3497 126.11 24.762H131.107C130.917 25.3497 130.774 25.8421 130.694 26.2234C130.615 26.6046 130.568 27.0811 130.568 27.6688V40.6782C130.568 41.393 130.679 42.362 130.885 43.5851H130.345C129.648 43.5851 129.092 43.4421 128.696 43.1562C128.299 42.8703 127.887 42.3302 127.474 41.5201C127.379 42.1078 127.173 42.6002 126.824 42.9974C126.491 43.3945 126.031 43.5851 125.46 43.5851H125.031C124.936 42.9338 124.857 42.4414 124.762 42.1078C124.667 41.7743 124.524 41.3613 124.302 40.9006L119.844 30.7663V30.7504ZM119.226 42.6956C119.067 42.0125 118.988 41.3295 118.988 40.6306V28.7808L118.829 28.4313C118.496 27.6688 118.21 27.097 118.004 26.7317C117.798 26.3663 117.592 26.1122 117.401 25.9374C117.211 25.7627 116.957 25.6674 116.656 25.6356C116.751 26.4457 116.799 27.1129 116.799 27.653V40.6623C116.799 41.3454 116.719 42.0284 116.561 42.7114H119.241L119.226 42.6956ZM125.111 40.5035C125.38 41.123 125.555 41.6313 125.634 42.0284C125.713 42.4096 125.761 42.632 125.777 42.6797C126.062 42.6161 126.285 42.4255 126.427 42.1078C126.57 41.806 126.649 41.4407 126.649 41.0118V39.7252L121.383 27.8277C121.113 27.2082 120.939 26.6999 120.859 26.3028C120.78 25.9215 120.733 25.6992 120.717 25.6515C120.431 25.715 120.209 25.9057 120.066 26.2234C119.924 26.5252 119.86 26.8905 119.86 27.3194V28.606L125.111 40.5035ZM127.49 27.6847V39.5345L127.649 39.884C127.982 40.6465 128.267 41.2183 128.474 41.5836C128.68 41.949 128.886 42.2031 129.076 42.3779C129.267 42.5526 129.521 42.6479 129.822 42.6797C129.727 41.8696 129.695 41.2024 129.695 40.6623V27.653C129.695 26.9699 129.774 26.2869 129.933 25.6039H127.252C127.411 26.2869 127.49 26.9699 127.49 27.6688V27.6847Z" fill="white"/>
<path d="M134.168 34.1528C133.994 33.4857 133.898 32.7867 133.898 32.0243C133.898 30.5788 134.279 29.2604 135.056 28.0849C135.818 26.9095 136.881 25.9882 138.213 25.321C139.546 24.6539 141.021 24.3203 142.623 24.3203C143.987 24.3203 145.272 24.5427 146.509 24.9716C147.747 25.4005 148.714 25.9088 149.428 26.4965V30.4199H148.81C147.747 29.5304 146.747 28.8792 145.78 28.482C144.812 28.0849 143.765 27.8943 142.607 27.8943C141.449 27.8943 140.307 28.1802 139.26 28.7362C138.213 29.308 137.325 30.0546 136.595 31.0077C135.865 31.9607 135.342 33.0091 135.041 34.1528C135.342 35.2965 135.865 36.3449 136.627 37.2979C137.372 38.251 138.292 38.9976 139.371 39.5694C140.45 40.1412 141.608 40.4113 142.861 40.4113C143.94 40.4113 144.955 40.2207 145.923 39.8236V37.3774C145.923 36.8055 145.875 36.329 145.796 35.9477C145.716 35.5665 145.574 35.0741 145.383 34.4864H149.999C149.809 35.0741 149.666 35.5665 149.587 35.9636C149.508 36.3607 149.46 36.8373 149.46 37.4091V42.4604C148.699 42.8734 147.667 43.2228 146.398 43.5405C145.129 43.8423 143.892 44.0012 142.671 44.0012C141.068 44.0012 139.577 43.6676 138.245 43.0163C136.897 42.3651 135.85 41.4438 135.072 40.2683C134.295 39.0929 133.898 37.7586 133.898 36.2813C133.898 35.5348 133.994 34.82 134.168 34.1528ZM137.991 28.5774C139.403 27.5607 140.957 27.0524 142.639 27.0524C143.733 27.0524 144.765 27.2272 145.732 27.5607C146.7 27.8943 147.652 28.4344 148.603 29.1492V26.9412C147.905 26.4647 147.033 26.0517 145.97 25.7023C144.907 25.3687 143.813 25.194 142.639 25.194C141.132 25.194 139.784 25.4799 138.594 26.0676C137.404 26.6553 136.468 27.4654 135.786 28.5138C135.104 29.5622 134.771 30.7376 134.771 32.0402V32.469C135.501 30.8965 136.579 29.594 137.991 28.5774ZM148.857 35.3441H146.557C146.716 36.0272 146.795 36.7102 146.795 37.3932V40.3954C146.383 40.6178 145.827 40.8084 145.114 40.999C144.4 41.1896 143.654 41.2849 142.877 41.2849C141.1 41.2849 139.498 40.7766 138.055 39.76C136.611 38.7434 135.516 37.4409 134.787 35.8683V36.2972C134.787 37.6156 135.136 38.807 135.818 39.8394C136.5 40.8719 137.452 41.682 138.657 42.2698C139.863 42.8575 141.211 43.1434 142.702 43.1434C143.765 43.1434 144.828 43.0322 145.891 42.794C146.97 42.5557 147.874 42.2698 148.635 41.9362V37.425C148.635 36.7261 148.714 36.0431 148.873 35.36L148.857 35.3441Z" fill="white"/>
</g>
<defs>
<clipPath id="clip0_241_3424">
<rect width="150" height="44" fill="white"/>
</clipPath>
</defs>
</svg>
