<svg width="151" height="44" viewBox="0 0 151 44" fill="none" xmlns="http://www.w3.org/2000/svg">
<g clip-path="url(#clip0_241_3567)">
<path d="M26.5442 6.6869C26.4966 6.98871 26.3219 7.14755 26.0042 7.11578C25.4641 7.06813 24.3204 7.03636 23.6533 7.06813L16.2193 7.22697C15.584 7.25874 15.0121 7.54466 14.8215 7.57643C14.5515 7.57643 12.8359 6.63925 12.8359 6.51217C12.8359 6.41687 12.9154 6.27391 12.9789 6.27391C13.3919 6.35333 14.8692 6.55983 16.5688 6.51217L19.4915 6.43275L19.4598 5.7656C19.4598 5.62264 19.4598 5.59087 19.3327 5.51145L18.459 5.06669C18.4273 4.95549 18.6814 4.71723 18.8244 4.71723L20.3175 4.92372C20.524 4.95549 20.5399 5.03492 20.524 5.24141L20.4764 6.40098L23.3991 6.32156C23.9392 6.32156 24.5269 5.82914 24.7493 5.82914C25.1941 5.86091 25.8453 5.9721 26.1312 6.06741C26.4807 6.16271 26.576 6.33744 26.5284 6.67102L26.5442 6.6869ZM14.0432 5.4638C17.1089 4.51073 19.5233 3.25586 21.5565 1.73095L17.7442 1.90567C17.3312 1.90567 16.9818 2.25513 16.7753 2.25513C16.5688 2.25513 15.2345 1.42914 15.2345 1.28618C15.2345 1.17499 15.3139 1.0638 15.3933 1.0638C16.0605 1.14322 16.9182 1.19087 17.6966 1.17499H18.0302L23.1767 0.984375C23.685 0.984375 23.828 1.12734 23.4627 1.47679C22.6367 2.22336 21.7312 2.87463 20.7464 3.44647L22.033 3.79593C22.732 3.923 22.7955 3.57354 23.558 3.79593C24.3045 4.00243 24.8923 4.35188 25.0829 4.76488C25.1941 5.03492 25.0829 5.32084 24.8128 5.41614L19.8569 3.923C18.2208 4.76488 16.3623 5.38437 14.3608 5.84502L14.0432 5.47968V5.4638ZM24.1933 9.149C24.1933 9.40315 24.0345 9.56199 23.7009 9.54611C23.2244 9.54611 22.5255 9.51434 21.8583 9.54611L17.8237 9.67318C17.3789 9.67318 17.1406 9.99087 16.8071 9.99087C16.6006 9.99087 15.2821 9.2443 15.2821 9.11723C15.2821 8.99015 15.3457 8.91073 15.4251 8.91073C16.0287 9.00604 16.8706 9.08546 17.6489 9.05369L21.6518 8.9425C22.3507 8.89484 22.5096 8.57715 22.732 8.57715C23.0338 8.57715 23.4627 8.62481 23.7168 8.68835C24.0186 8.76777 24.1933 8.91073 24.1775 9.18077L24.1933 9.149ZM22.3825 11.8652C22.3825 12.9454 21.3659 13.7237 19.8569 13.7237C18.3479 13.7237 17.363 12.9295 17.363 11.8652C17.363 10.801 18.3955 9.99087 19.841 9.97499C21.4453 9.97499 22.3825 10.7692 22.3825 11.8652ZM19.3645 8.5295C19.0468 8.48185 18.2525 7.91001 18.1255 7.62409C18.1255 7.56055 18.2208 7.48113 18.2843 7.49701C18.9673 7.67174 20.0634 7.78293 20.8735 7.8147C21.2865 7.8147 21.4453 7.94178 21.4453 8.18004C21.4453 8.46596 21.3182 8.5295 20.9529 8.56127C20.5876 8.60892 19.841 8.60892 19.3645 8.5295ZM21.4136 11.8652C21.4136 11.1504 20.7623 10.658 19.841 10.658C18.9197 10.658 18.3161 11.1504 18.3161 11.8652C18.3161 12.58 18.9356 13.0248 19.8569 13.0248C20.7782 13.0248 21.4136 12.5642 21.4136 11.8652Z" fill="black"/>
<path d="M40.8695 7.75089C40.8219 8.05269 40.6471 8.19565 40.3294 8.16388C39.7894 8.11623 38.6457 8.06858 37.9785 8.08446L30.7193 8.22742C30.084 8.22742 29.5915 8.57688 29.3056 8.59277C29.0356 8.59277 27.3359 7.60793 27.3359 7.48085C27.3359 7.38555 27.4154 7.24259 27.4789 7.24259C27.8919 7.32201 29.3692 7.57616 31.0688 7.52851L37.645 7.38555C38.3121 7.38555 38.7569 6.9249 39.0587 6.89313C39.5034 6.9249 40.1706 7.05197 40.4724 7.14728C40.7742 7.24259 40.9013 7.4332 40.8536 7.75089H40.8695ZM38.7728 12.8975C38.7728 13.2469 38.6298 13.4058 38.2486 13.4058H32.0536C31.2118 13.4058 31.18 12.8498 31.1641 12.135L31.1323 10.7054V10.5624C31.1323 10.4354 31.1323 10.4354 30.9735 10.3718L29.7504 9.89529C29.7504 9.70468 29.9886 9.4823 30.084 9.4823L32.006 9.62526C32.2601 9.65703 32.276 9.6888 32.276 9.89529V12.7068H36.2312C36.5489 12.7068 37.3114 12.2938 37.3432 12.2938C38.3439 12.2938 38.7886 12.405 38.7886 12.9133L38.7728 12.8975ZM30.9417 3.57327C30.9417 1.92129 32.4031 0.761719 34.071 0.761719C35.7388 0.761719 37.232 1.9054 37.232 3.57327C37.232 5.24114 35.7865 6.25775 34.071 6.25775C32.3554 6.25775 30.9417 5.25703 30.9417 3.57327ZM31.9901 3.57327C31.9901 4.76461 33.0226 5.41587 34.071 5.41587C35.1193 5.41587 36.1836 4.76461 36.1836 3.57327C36.1836 2.38194 35.1352 1.65125 34.071 1.65125C33.0067 1.65125 31.9901 2.36605 31.9901 3.57327Z" fill="black"/>
<path d="M50.9274 7.2277C49.1484 7.2277 47.7188 6.08401 47.7188 4.43203C47.7188 2.78004 49.1484 1.62048 50.9274 1.62048C52.7065 1.62048 54.1202 2.76416 54.1202 4.43203C54.1202 6.0999 52.7541 7.2277 50.9274 7.2277ZM50.9274 6.33817C52.1505 6.33817 53.0083 5.62336 53.0083 4.43203C53.0083 3.24069 52.1346 2.51001 50.9274 2.51001C49.7202 2.51001 48.8307 3.25658 48.8307 4.43203C48.8307 5.60748 49.7361 6.33817 50.9274 6.33817ZM58.9332 13.0414C58.9332 13.3591 58.7267 13.5021 58.3455 13.5021H52.7859C51.9599 13.5021 51.8964 12.9938 51.8805 12.1995V11.1194L50.8162 10.7223C50.8162 10.5317 51.0068 10.3411 51.0863 10.3411L52.9289 10.5476L56.9794 10.4522L57.0112 8.91145L53.4054 9.03853C52.9924 9.03853 52.6112 9.38799 52.4206 9.38799C52.2776 9.38799 50.8798 8.54611 50.8798 8.48257C50.8798 8.38726 50.9592 8.26019 51.0386 8.26019C51.4198 8.30784 52.77 8.38726 53.3736 8.3555L57.853 8.21253C58.139 8.21253 58.2555 8.33432 58.2025 8.57788L57.726 10.4522C57.9801 10.4999 58.2343 10.5952 58.2343 10.8176C58.2343 11.04 58.1072 11.167 57.8689 11.167L52.9289 11.1988V12.7714H56.4234C56.8523 12.7714 57.2812 12.4219 57.3606 12.4219C57.7895 12.4219 58.2978 12.4855 58.552 12.5331C58.7902 12.5967 58.9173 12.7873 58.9173 13.0255L58.9332 13.0414ZM57.0588 1.14394L55.7722 0.333833C55.7722 0.333833 56.0263 -0.015625 56.1375 -0.015625C56.3599 -0.015625 57.7419 0.381487 58.0437 0.492678C58.1919 0.545627 58.266 0.667408 58.266 0.858021V2.09701L58.2343 5.73456L58.2025 6.27463C58.1707 6.83058 57.8213 7.57716 57.4083 7.57716L57.2653 7.48185L57.1859 5.73456L57.1382 2.09701V1.30279C57.1382 1.22866 57.1065 1.17571 57.0429 1.14394H57.0588Z" fill="black"/>
<path d="M63.3965 7.52924C63.2853 7.91047 63.0311 8.24404 62.7293 8.24404L62.6023 8.14874L62.2846 3.33574C62.2846 3.19278 62.2846 3.20866 62.1416 3.12924L61.125 2.60505C61.125 2.41444 61.4427 2.19206 61.5062 2.19206L63.3012 2.44621L67.7647 2.3509C68.4001 2.3509 68.3524 2.28736 68.2571 2.87509L67.6694 6.76679C67.9394 6.76679 68.2571 6.92563 68.2571 7.19567C68.2571 7.43394 68.1459 7.52924 67.7012 7.52924H63.4124H63.3965ZM66.9387 6.78267L67.0023 3.12924L63.3806 3.1769L63.46 6.84621L66.9546 6.78267H66.9387ZM72.6889 12.8982C72.6889 13.2477 72.5459 13.4065 72.1647 13.4065H66.4304C65.5885 13.4065 65.5568 12.8505 65.5409 12.1357L65.5091 10.4838V10.3408C65.5091 10.2137 65.5091 10.2137 65.3503 10.1502L64.1272 9.67365C64.1272 9.48303 64.3654 9.26065 64.4607 9.26065L66.3828 9.40361C66.6369 9.43538 66.6528 9.46715 66.6528 9.67365V12.7076H70.1474C70.5127 12.7076 71.1799 12.2946 71.2434 12.2946C71.6405 12.2946 71.9423 12.3264 72.1806 12.374C72.5301 12.4375 72.7048 12.6123 72.6889 12.93V12.8982ZM74.6109 5.67076C74.6109 6.0361 74.3885 6.14729 74.0391 6.14729H71.8311V9.18123L71.7994 9.73718C71.7676 10.2931 71.4181 11.0397 71.0051 11.0397L70.8622 10.9444L70.7828 9.18123L70.7351 2.11264V1.31841C70.7351 1.24428 70.7033 1.19134 70.6398 1.15957L69.3532 0.349458C69.3532 0.349458 69.6073 0 69.7185 0C69.9409 0 71.3228 0.397112 71.6246 0.508303C71.7729 0.561251 71.847 0.683032 71.847 0.873646V2.11264V5.54368H72.4983C72.7524 5.54368 73.3719 5.08303 73.5308 5.08303C74.3568 5.08303 74.6109 5.22599 74.6109 5.68664V5.67076Z" fill="black"/>
<path d="M84.2985 7.21181C82.5036 7.21181 81.0898 6.0999 81.0898 4.35261C81.0898 2.60531 82.5036 1.44575 84.2985 1.44575C86.0935 1.44575 87.5866 2.6212 87.5866 4.35261C87.5866 6.08401 86.1411 7.21181 84.2985 7.21181ZM85.744 10.6587C84.9021 11.723 83.8537 12.7237 82.44 13.6133L82.1223 13.375C83.6155 12.1837 84.775 10.6587 85.4422 9.24502C85.474 9.08618 85.0927 8.76849 84.6162 8.48257C84.5844 8.37138 84.918 8.149 85.0769 8.16488C85.3787 8.19665 86.3317 8.60965 86.6018 8.81614C86.7447 8.92734 86.7765 9.05441 86.5382 9.45152C86.4111 9.67391 86.2682 9.89629 86.1252 10.1187L86.4906 10.6429C86.7924 11.0559 86.9036 10.7541 87.2213 11.1829C87.5231 11.58 87.6025 12.0407 87.5389 12.3584C87.4913 12.5649 87.2848 12.6761 87.0783 12.5966L85.7281 10.6429L85.744 10.6587ZM84.2985 6.33817C85.5216 6.33817 86.4747 5.55983 86.4747 4.33672C86.4747 3.11362 85.5216 2.30351 84.2985 2.30351C83.0754 2.30351 82.2018 3.06596 82.2018 4.33672C82.2018 5.60748 83.1072 6.33817 84.2985 6.33817ZM93.0509 13.2003C92.9873 13.4544 92.7808 13.5656 92.5425 13.5338L90.3187 10.6111C89.6039 11.6753 88.6032 12.7555 87.2054 13.7403L86.8718 13.4862C88.3967 12.136 89.4292 10.5317 90.0328 9.13383C90.0646 8.9591 89.6039 8.54611 89.1433 8.2443C89.1115 8.13311 89.4292 7.89484 89.588 7.92661C89.8898 7.99015 91.0018 8.38726 91.2083 8.60965C91.3353 8.73672 91.3036 8.87968 91.0812 9.32445C90.97 9.53094 90.8588 9.75333 90.7158 9.97571L91.6054 11.0717C91.9548 11.5006 92.1137 11.1512 92.5425 11.6912C92.9714 12.2472 93.1303 12.8349 93.035 13.2003H93.0509ZM90.5252 1.14394L89.2386 0.333833C89.2386 0.333833 89.4927 -0.015625 89.6039 -0.015625C89.8263 -0.015625 91.2083 0.381487 91.5101 0.492678C91.6583 0.545626 91.7324 0.667407 91.7324 0.858021V2.09701L91.7007 5.84575L91.6689 6.38582C91.6371 6.94178 91.2877 7.68835 90.8747 7.68835L90.7317 7.59304L90.6523 5.84575L90.6046 2.09701V1.30279C90.6046 1.22866 90.5729 1.17571 90.5093 1.14394H90.5252Z" fill="black"/>
<path d="M94.4182 11.0705C94.4182 10.9752 94.4976 10.8323 94.5612 10.8323C94.9742 10.9117 96.4356 11.1182 98.1352 11.0864L104.902 10.9752C105.474 10.9752 105.871 10.5622 106.236 10.5146C106.729 10.5622 107.38 10.6734 107.698 10.7846C108.015 10.8958 108.063 11.0705 108.015 11.3882C107.968 11.69 107.793 11.833 107.475 11.8012C106.935 11.7536 105.823 11.69 105.14 11.7059L97.7699 11.833C97.1504 11.833 96.6103 12.1507 96.3561 12.1666C96.0861 12.1666 94.4023 11.1976 94.4023 11.0705H94.4182ZM97.611 4.98679C97.611 2.87415 99.3583 1.73047 101.217 1.73047C103.075 1.73047 104.854 2.85827 104.854 4.98679C104.854 7.11531 103.091 8.1478 101.217 8.1478C99.3424 8.1478 97.611 7.08354 97.611 4.98679ZM103.774 4.98679C103.774 3.44599 102.551 2.65177 101.217 2.65177C99.8825 2.65177 98.6912 3.46188 98.6912 4.98679C98.6912 6.5117 99.8984 7.29004 101.217 7.29004C102.535 7.29004 103.774 6.49581 103.774 4.98679Z" fill="black"/>
<path d="M122.709 6.60768C122.709 6.97302 122.518 7.11599 122.137 7.11599H119.706V11.929C119.611 13.0727 119.23 13.7716 118.817 13.8351L118.674 13.7398L118.642 11.3889V8.35497C116.974 9.19685 114.814 9.97519 112.018 10.5153C111.637 10.5947 111.446 10.5947 111.351 10.5947C111.224 10.5947 111.161 10.5629 111.081 10.4517C110.938 10.2293 110.636 9.64162 110.636 9.49866L110.557 6.48061C110.557 6.39589 110.509 6.33235 110.414 6.28999L109.461 5.84523C109.461 5.65461 109.715 5.41635 109.81 5.43223L111.589 5.68638L114.671 5.57519L114.703 2.97014L112.209 3.1131C111.844 3.14487 111.367 3.49433 111.176 3.49433C111.033 3.49433 109.588 2.54126 109.588 2.46183C109.588 2.36653 109.667 2.25534 109.747 2.25534C110.176 2.31887 111.145 2.38241 111.796 2.35064L115.592 2.20768C116.021 2.20768 116.037 2.20768 115.974 2.57303L115.402 5.57519C115.688 5.62284 116.005 5.79757 116.005 6.03584C116.005 6.32176 115.878 6.36942 115.465 6.36942L111.701 6.40118V9.48277C114.48 9.10154 116.768 8.5297 118.626 7.92609L118.579 1.88999V1.38169C118.579 1.28638 118.542 1.21755 118.467 1.17519L117.181 0.412737C117.181 0.31743 117.435 0.015625 117.53 0.015625C117.753 0.015625 119.039 0.380968 119.532 0.539813C119.648 0.582171 119.706 0.661594 119.706 0.77808V6.44884H120.389C120.755 6.44884 121.311 5.95642 121.422 5.95642C122.518 5.95642 122.693 6.16292 122.693 6.62357L122.709 6.60768Z" fill="black"/>
<path d="M136.827 11.5781C136.764 11.8799 136.621 12.0228 136.287 11.9911C135.747 11.9434 134.635 11.9117 133.952 11.9275L126.598 12.0705C125.962 12.0705 125.454 12.4041 125.216 12.42C124.946 12.42 123.246 11.451 123.246 11.3239C123.246 11.2286 123.326 11.0857 123.389 11.0857C123.818 11.181 125.263 11.4033 126.979 11.3557L128.949 11.308L128.869 7.40046C128.869 7.2575 128.885 7.22573 128.758 7.14631L127.757 6.55859C127.757 6.46328 127.98 6.19324 128.123 6.19324L129.806 6.5427C130.013 6.59035 130.013 6.65389 130.013 6.86039L129.918 11.2922L133.714 11.1969C134.286 11.1969 134.715 10.768 135.016 10.7362C135.509 10.768 136.176 10.8633 136.494 10.9745C136.78 11.0698 136.859 11.2445 136.811 11.5781H136.827ZM124.962 2.3492C124.962 2.23801 125.041 2.12682 125.12 2.12682C125.851 2.22212 127.09 2.25389 127.932 2.23801L134.445 2.01562C135.048 2.01562 135.08 2.01563 135.016 2.5557C134.651 5.08133 133.905 7.43223 133.047 9.67194L132.459 9.56075C132.999 7.35281 133.396 5.1131 133.603 2.82573L128.297 2.95281H128.091C127.583 3.00046 127.027 3.42934 126.82 3.42934C126.598 3.42934 124.962 2.49216 124.962 2.33331V2.3492Z" fill="black"/>
<path d="M0.412996 42.0919C0.492419 41.7107 0.540072 41.2342 0.540072 40.6623V27.653C0.540072 27.0811 0.492419 26.6046 0.412996 26.2075C0.333574 25.8262 0.190614 25.3338 0 24.7461H5.0195C4.82888 25.3338 4.68592 25.8262 4.6065 26.2234C4.52708 26.6205 4.47942 27.097 4.47942 27.6688V31.5923C4.47942 32.3389 4.63827 32.9743 4.94007 33.4984C5.3213 33.1649 5.75018 32.8948 6.22672 32.7201C6.70325 32.5454 7.19567 32.4501 7.70397 32.4501C8.21227 32.4501 8.70469 32.5454 9.18123 32.7201C9.65776 32.8948 10.1025 33.1649 10.4679 33.4984C10.7697 32.9743 10.9285 32.3389 10.9285 31.5923V27.6688C10.9285 27.097 10.8809 26.6205 10.8014 26.2234C10.722 25.8262 10.5791 25.3338 10.3884 24.7461H15.4079C15.2173 25.3338 15.0744 25.8262 14.9949 26.2075C14.9155 26.5887 14.8679 27.0652 14.8679 27.653V40.6623C14.8679 41.2342 14.9155 41.7107 14.9949 42.0919C15.0744 42.4732 15.2173 42.9656 15.4079 43.5533H10.3884C10.5791 42.9656 10.722 42.4732 10.8014 42.0761C10.8809 41.6789 10.9285 41.2024 10.9285 40.6306V36.7389C10.9285 35.9923 10.7697 35.3569 10.4679 34.8327C10.0866 35.1663 9.65776 35.4363 9.18123 35.6111C8.70469 35.7858 8.21227 35.8811 7.70397 35.8811C7.19567 35.8811 6.70325 35.7858 6.22672 35.6111C5.75018 35.4363 5.3213 35.1663 4.94007 34.8327C4.63827 35.3569 4.47942 35.9923 4.47942 36.7389V40.6306C4.47942 41.2024 4.52708 41.6948 4.6065 42.0761C4.68592 42.4732 4.82888 42.9656 5.0195 43.5533H0C0.190614 42.9656 0.333574 42.4732 0.412996 42.0919ZM4.35235 34.1497C3.87581 33.4667 3.62166 32.6248 3.62166 31.5923V27.6688C3.62166 26.9699 3.70108 26.2869 3.85993 25.6039H1.15957C1.31841 26.2869 1.39783 26.9699 1.39783 27.653V40.6623C1.39783 41.3454 1.31841 42.0284 1.15957 42.7114H3.87581C3.71697 42.0284 3.63755 41.3454 3.63755 40.6465V36.7548C3.63755 35.754 3.87581 34.8963 4.36823 34.1815L4.35235 34.1497ZM7.70397 35.0233C8.64116 35.0233 9.38773 34.7533 9.95957 34.1974C9.38773 33.6255 8.64116 33.3396 7.70397 33.3396C6.76679 33.3396 6.02022 33.6096 5.44838 34.1656C6.02022 34.7374 6.76679 35.0233 7.70397 35.0233ZM11.7863 36.7389V40.6306C11.7863 41.3295 11.7069 42.0125 11.548 42.6956H14.2643C14.1054 42.0125 14.026 41.3295 14.026 40.6465V27.6371C14.026 26.954 14.1054 26.271 14.2643 25.588H11.548C11.7069 26.271 11.7863 26.954 11.7863 27.653V31.5764C11.7863 32.5771 11.548 33.4349 11.0556 34.1497C11.5321 34.8327 11.7863 35.6746 11.7863 36.7071V36.7389Z" fill="black"/>
<path d="M19.0466 29.3216C19.6661 27.8602 20.5556 26.6689 21.6993 25.7952C22.8429 24.9057 24.1137 24.4609 25.5592 24.4609C26.2422 24.4609 26.8776 24.5404 27.4653 24.6992C28.0531 24.5404 28.6884 24.4609 29.3715 24.4609C30.8011 24.4609 32.0877 24.9057 33.2314 25.7952C34.3751 26.6848 35.2487 27.8602 35.8841 29.3216C36.5036 30.783 36.8213 32.3714 36.8213 34.0552C36.8213 35.7389 36.4559 37.4227 35.7411 38.9317C35.0263 40.4407 33.9621 41.6638 32.5642 42.601C31.1505 43.5382 29.4668 43.9988 27.4653 43.9988C25.4639 43.9988 23.796 43.5382 22.3823 42.601C20.9686 41.6638 19.9043 40.4407 19.1895 38.9317C18.4747 37.4227 18.1094 35.7866 18.1094 34.0552C18.1094 32.3238 18.4271 30.7988 19.0466 29.3216ZM24.3043 40.4566C23.3989 39.8053 22.7 38.9158 22.2076 37.8039C21.7152 36.692 21.4769 35.4371 21.4769 34.0552C21.4769 32.1808 21.874 30.4494 22.6682 28.8609C23.4624 27.2725 24.5585 26.097 25.9404 25.3346H25.5592C24.2884 25.3346 23.1448 25.7317 22.144 26.51C21.1433 27.3043 20.365 28.3526 19.809 29.6869C19.2531 31.0212 18.983 32.4826 18.983 34.0552C18.983 35.6277 19.3007 37.1844 19.952 38.5664C20.6032 39.9483 21.5563 41.0443 22.8429 41.8862C24.1296 42.7281 25.6704 43.1411 27.4812 43.1411C29.292 43.1411 30.8328 42.7281 32.1195 41.8862C33.4061 41.0602 34.3592 39.9483 35.0105 38.5664C35.6617 37.1844 35.9794 35.6754 35.9794 34.0552C35.9794 32.4349 35.7094 31.0212 35.1534 29.6869C34.5975 28.3526 33.8191 27.2884 32.8184 26.51C31.8177 25.7158 30.674 25.3346 29.4032 25.3346H29.022C30.404 26.097 31.4841 27.2884 32.2942 28.8609C33.0884 30.4494 33.4855 32.1808 33.4855 34.0552C33.4855 35.4212 33.2473 36.6602 32.7549 37.788C32.2783 38.9158 31.5794 39.8053 30.674 40.4566C29.7686 41.1079 28.7202 41.4414 27.513 41.4414C26.3058 41.4414 25.2256 41.1079 24.3361 40.4566H24.3043ZM22.9383 37.4386C23.3513 38.4234 23.939 39.2017 24.7332 39.7418C25.5115 40.2978 26.4328 40.5678 27.4812 40.5678C28.5296 40.5678 29.4191 40.2978 30.1975 39.7418C30.9599 39.1858 31.5635 38.4075 31.9765 37.4227C32.3895 36.4378 32.596 35.31 32.596 34.0552C32.596 32.0061 32.1354 30.2111 31.2141 28.6544C30.2928 27.0978 29.0379 26.0812 27.4653 25.5887C25.8928 26.0653 24.6379 27.0978 23.7166 28.6544C22.7953 30.2111 22.3346 32.0061 22.3346 34.0552C22.3346 35.3259 22.5411 36.4537 22.9541 37.4386H22.9383Z" fill="black"/>
<path d="M39.9013 42.0919C39.9807 41.7107 40.0284 41.2342 40.0284 40.6623V27.653C40.0284 27.0811 39.9807 26.6046 39.9013 26.2075C39.8219 25.8262 39.6789 25.3338 39.4883 24.7461H44.5078C44.3172 25.3338 44.1742 25.8262 44.0948 26.2234C44.0154 26.6205 43.9677 27.097 43.9677 27.6688V31.5923C43.9677 32.3389 44.1265 32.9743 44.4284 33.4984C44.8096 33.1649 45.2385 32.8948 45.715 32.7201C46.1915 32.5454 46.6839 32.4501 47.1922 32.4501C47.7006 32.4501 48.193 32.5454 48.6695 32.7201C49.146 32.8948 49.5908 33.1649 49.9562 33.4984C50.258 32.9743 50.4168 32.3389 50.4168 31.5923V27.6688C50.4168 27.097 50.3691 26.6205 50.2897 26.2234C50.2103 25.8262 50.0673 25.3338 49.8767 24.7461H54.8962C54.7056 25.3338 54.5626 25.8262 54.4832 26.2075C54.4038 26.5887 54.3562 27.0652 54.3562 27.653V40.6623C54.3562 41.2342 54.4038 41.7107 54.4832 42.0919C54.5626 42.4732 54.7056 42.9656 54.8962 43.5533H49.8767C50.0673 42.9656 50.2103 42.4732 50.2897 42.0761C50.3691 41.6789 50.4168 41.2024 50.4168 40.6306V36.7389C50.4168 35.9923 50.258 35.3569 49.9562 34.8327C49.5749 35.1663 49.146 35.4363 48.6695 35.6111C48.193 35.7858 47.7006 35.8811 47.1922 35.8811C46.6839 35.8811 46.1915 35.7858 45.715 35.6111C45.2385 35.4363 44.8096 35.1663 44.4284 34.8327C44.1265 35.3569 43.9677 35.9923 43.9677 36.7389V40.6306C43.9677 41.2024 44.0154 41.6948 44.0948 42.0761C44.1742 42.4732 44.3172 42.9656 44.5078 43.5533H39.4883C39.6789 42.9656 39.8219 42.4732 39.9013 42.0919ZM43.8406 34.1497C43.3641 33.4667 43.1099 32.6248 43.1099 31.5923V27.6688C43.1099 26.9699 43.1894 26.2869 43.3482 25.6039H40.632C40.7908 26.2869 40.8702 26.9699 40.8702 27.653V40.6623C40.8702 41.3454 40.7908 42.0284 40.632 42.7114H43.3482C43.1894 42.0284 43.1099 41.3454 43.1099 40.6465V36.7548C43.1099 35.754 43.3482 34.8963 43.8406 34.1815V34.1497ZM47.2081 35.0233C48.1453 35.0233 48.8919 34.7533 49.4637 34.1974C48.8919 33.6255 48.1453 33.3396 47.2081 33.3396C46.271 33.3396 45.5244 33.6096 44.9525 34.1656C45.5244 34.7374 46.271 35.0233 47.2081 35.0233ZM51.2904 36.7389V40.6306C51.2904 41.3295 51.211 42.0125 51.0522 42.6956H53.7684C53.6096 42.0125 53.5302 41.3295 53.5302 40.6465V27.6371C53.5302 26.954 53.6096 26.271 53.7684 25.588H51.0522C51.211 26.271 51.2904 26.954 51.2904 27.653V31.5764C51.2904 32.5771 51.0522 33.4349 50.5598 34.1497C51.0363 34.8327 51.2904 35.6746 51.2904 36.7071V36.7389Z" fill="black"/>
<path d="M58.5348 29.3216C59.1543 27.8602 60.0439 26.6689 61.1876 25.7952C62.3312 24.9057 63.602 24.4609 65.0475 24.4609C65.7305 24.4609 66.3659 24.5404 66.9536 24.6992C67.5413 24.5404 68.1767 24.4609 68.8598 24.4609C70.2894 24.4609 71.576 24.9057 72.7197 25.7952C73.8634 26.6848 74.737 27.8602 75.3724 29.3216C75.9919 30.783 76.3096 32.3714 76.3096 34.0552C76.3096 35.7389 75.9442 37.4227 75.2294 38.9317C74.5146 40.4407 73.4504 41.6638 72.0525 42.601C70.6388 43.5382 68.9551 43.9988 66.9536 43.9988C64.9522 43.9988 63.2843 43.5382 61.8706 42.601C60.4569 41.6638 59.3926 40.4407 58.6778 38.9317C57.963 37.4227 57.5977 35.7866 57.5977 34.0552C57.5977 32.3238 57.9153 30.7988 58.5348 29.3216ZM63.7926 40.4566C62.8872 39.8053 62.1883 38.9158 61.6959 37.8039C61.2034 36.692 60.9652 35.4371 60.9652 34.0552C60.9652 32.1808 61.3623 30.4494 62.1565 28.8609C62.9507 27.2725 64.0468 26.097 65.4287 25.3346H65.0475C63.7767 25.3346 62.633 25.7317 61.6323 26.51C60.6316 27.3043 59.8533 28.3526 59.2973 29.6869C58.7413 31.0212 58.4713 32.4826 58.4713 34.0552C58.4713 35.6277 58.789 37.1844 59.4403 38.5664C60.0915 39.9483 61.0446 41.0443 62.3312 41.8862C63.6179 42.7122 65.1587 43.1411 66.9695 43.1411C68.7803 43.1411 70.3211 42.7281 71.6078 41.8862C72.8944 41.0443 73.8475 39.9483 74.4987 38.5664C75.15 37.1844 75.4677 35.6754 75.4677 34.0552C75.4677 32.4349 75.1977 31.0212 74.6417 29.6869C74.0857 28.3526 73.3074 27.2884 72.3067 26.51C71.306 25.7158 70.1623 25.3346 68.8915 25.3346H68.5103C69.8922 26.097 70.9724 27.2884 71.7825 28.8609C72.5767 30.4494 72.9738 32.1808 72.9738 34.0552C72.9738 35.4212 72.7356 36.6602 72.2431 37.788C71.7666 38.9158 71.0677 39.8053 70.1623 40.4566C69.2569 41.1079 68.2085 41.4414 67.0013 41.4414C65.794 41.4414 64.7139 41.1079 63.8244 40.4566H63.7926ZM62.4424 37.4386C62.8554 38.4234 63.4431 39.2017 64.2374 39.7418C65.0157 40.2978 65.937 40.5678 66.9854 40.5678C68.0338 40.5678 68.9233 40.2978 69.7016 39.7418C70.4641 39.1858 71.0677 38.4075 71.4807 37.4227C71.8937 36.4378 72.1002 35.31 72.1002 34.0552C72.1002 32.0061 71.6395 30.2111 70.7182 28.6544C69.7969 27.0978 68.5421 26.0812 66.9695 25.5887C65.3969 26.0653 64.1421 27.0978 63.2208 28.6544C62.2995 30.2111 61.8388 32.0061 61.8388 34.0552C61.8388 35.3259 62.0453 36.4537 62.4583 37.4386H62.4424Z" fill="black"/>
<path d="M79.4052 42.0919C79.4846 41.7107 79.5323 41.2342 79.5323 40.6623V27.653C79.5323 27.0811 79.4846 26.6046 79.4052 26.2075C79.3258 25.8262 79.1828 25.3338 78.9922 24.7461H86.299C88.1099 24.7461 89.6824 25.0638 91.0009 25.715C92.3193 26.3663 93.3359 27.2558 94.0507 28.3836C94.7655 29.5273 95.1149 30.8298 95.1149 32.323C95.1149 32.9425 95.0673 33.562 94.9561 34.1497C95.0673 34.7374 95.1149 35.3569 95.1149 35.9764C95.1149 37.4696 94.7655 38.7721 94.0507 39.9158C93.3359 41.0595 92.3193 41.949 91.0009 42.5844C89.6824 43.2197 88.1099 43.5533 86.299 43.5533H78.9922C79.1828 42.9656 79.3258 42.4732 79.4052 42.0919ZM91.9698 41.0118C93.3518 39.884 94.0983 38.375 94.2095 36.4688C93.5424 37.8984 92.5258 39.0421 91.1438 39.8999C89.7619 40.7576 88.0781 41.1865 86.0608 41.1865C84.9012 41.1865 83.7416 41.0912 82.598 40.8847V27.3988C83.7416 27.2082 84.9012 27.097 86.0608 27.097C88.0622 27.097 89.7619 27.5259 91.1438 28.3836C92.5258 29.2414 93.5424 30.3851 94.2095 31.8147C94.0983 29.9244 93.3518 28.3995 91.9698 27.2717C90.5879 26.1439 88.6817 25.5721 86.2832 25.5721H80.1359C80.2947 26.2551 80.3741 26.9382 80.3741 27.6212V40.6306C80.3741 41.3136 80.2947 41.9966 80.1359 42.6797H86.2832C88.6817 42.6797 90.572 42.1078 91.9698 40.98V41.0118ZM86.0767 40.3288C88.364 40.3288 90.1907 39.7569 91.5409 38.6291C92.8911 37.4854 93.733 36.0082 94.0824 34.1497C93.7489 32.3071 92.8911 30.814 91.5409 29.6703C90.1907 28.5266 88.364 27.9706 86.0767 27.9706C85.2189 27.9706 84.3453 28.0342 83.4716 28.1613V40.1382C84.3453 40.2652 85.2189 40.3288 86.0767 40.3288Z" fill="black"/>
<path d="M101.12 27.1801C101.231 26.8147 101.294 26.4811 101.31 26.1635C101.326 25.8458 101.342 25.3692 101.342 24.7656H102.422C103.01 24.7656 103.502 24.8609 103.884 25.0674C104.265 25.258 104.598 25.5757 104.868 25.9728C105.139 25.5598 105.472 25.258 105.853 25.0674C106.235 24.8768 106.727 24.7656 107.315 24.7656H108.395C108.395 25.3692 108.395 25.8458 108.427 26.1635C108.458 26.4811 108.506 26.8306 108.617 27.1801L113.557 43.5728H108.935C108.935 42.9057 108.935 42.4133 108.903 42.0797C108.887 41.7461 108.808 41.3808 108.697 40.9678L108.157 39.2523H101.596L101.056 40.9678C100.945 41.3331 100.881 41.6667 100.85 41.9685C100.818 42.2862 100.802 42.588 100.802 42.9057V43.557H96.1797L101.12 27.1642V27.1801ZM101.469 36.5996L104.106 27.7837C104.17 27.5136 104.281 27.2118 104.408 26.8941C104.185 26.4176 103.947 26.0682 103.661 25.8934C103.375 25.7028 102.962 25.6075 102.422 25.6075H102.2C102.168 26.3223 102.073 26.9259 101.93 27.4342L97.371 42.6992H99.9443C99.9443 41.9685 100.04 41.2855 100.246 40.6819L100.945 38.3786H108.792L109.491 40.6819C109.65 41.2537 109.745 41.9209 109.793 42.6992H112.366L107.791 27.4342C107.648 26.9259 107.553 26.3223 107.521 25.6075H107.315C106.775 25.6075 106.362 25.7028 106.076 25.8934C105.79 26.084 105.536 26.4176 105.329 26.8941C105.456 27.2118 105.552 27.5136 105.631 27.7837L108.268 36.5996H101.501H101.469ZM107.108 35.7418L104.853 28.2443L102.597 35.7418H107.108Z" fill="black"/>
<path d="M120.007 30.7504V40.6306C120.007 41.2024 120.054 41.6948 120.134 42.0761C120.213 42.4732 120.356 42.9656 120.547 43.5533H115.543C115.734 42.9656 115.877 42.4732 115.956 42.0919C116.035 41.7107 116.083 41.2342 116.083 40.6623V27.653C116.083 26.9223 115.972 25.9533 115.765 24.7461H116.305C117.004 24.7461 117.56 24.8891 117.957 25.175C118.355 25.4609 118.768 26.001 119.181 26.8111C119.276 26.2233 119.482 25.7309 119.832 25.3338C120.165 24.9367 120.626 24.7461 121.198 24.7461H121.627C121.722 25.3974 121.801 25.8898 121.897 26.2234C121.992 26.5569 122.135 26.9699 122.357 27.4306L126.821 37.5649V27.6847C126.821 27.1129 126.773 26.6363 126.694 26.2392C126.614 25.8421 126.471 25.3497 126.281 24.762H131.284C131.094 25.3497 130.951 25.8421 130.871 26.2234C130.792 26.6046 130.744 27.0811 130.744 27.6688V40.6782C130.744 41.393 130.856 42.362 131.062 43.5851H130.522C129.823 43.5851 129.267 43.4421 128.87 43.1562C128.473 42.8703 128.06 42.3302 127.647 41.5201C127.552 42.1078 127.345 42.6002 126.996 42.9974C126.662 43.3945 126.201 43.5851 125.63 43.5851H125.201C125.105 42.9338 125.026 42.4414 124.931 42.1078C124.835 41.7743 124.692 41.3613 124.47 40.9006L120.007 30.7663V30.7504ZM119.387 42.6956C119.228 42.0125 119.149 41.3295 119.149 40.6306V28.7808L118.99 28.4313C118.656 27.6688 118.37 27.097 118.164 26.7317C117.957 26.3663 117.751 26.1122 117.56 25.9374C117.37 25.7627 117.116 25.6674 116.814 25.6356C116.909 26.4457 116.957 27.1129 116.957 27.653V40.6623C116.957 41.3454 116.877 42.0284 116.718 42.7114H119.403L119.387 42.6956ZM125.28 40.5035C125.55 41.123 125.725 41.6313 125.804 42.0284C125.884 42.4096 125.931 42.632 125.947 42.6797C126.233 42.6161 126.456 42.4255 126.599 42.1078C126.742 41.806 126.821 41.4407 126.821 41.0118V39.7252L121.547 27.8277C121.277 27.2082 121.103 26.6999 121.023 26.3028C120.944 25.9215 120.896 25.6992 120.88 25.6515C120.594 25.715 120.372 25.9057 120.229 26.2234C120.086 26.5252 120.022 26.8905 120.022 27.3194V28.606L125.28 40.5035ZM127.663 27.6847V39.5345L127.822 39.884C128.155 40.6465 128.441 41.2183 128.648 41.5836C128.854 41.949 129.061 42.2031 129.251 42.3779C129.442 42.5526 129.696 42.6479 129.998 42.6797C129.903 41.8696 129.871 41.2024 129.871 40.6623V27.653C129.871 26.9699 129.95 26.2869 130.109 25.6039H127.425C127.583 26.2869 127.663 26.9699 127.663 27.6688V27.6847Z" fill="black"/>
<path d="M134.352 34.1528C134.177 33.4857 134.082 32.7867 134.082 32.0243C134.082 30.5788 134.463 29.2604 135.242 28.0849C136.004 26.9095 137.068 25.9882 138.403 25.321C139.737 24.6539 141.214 24.3203 142.818 24.3203C144.185 24.3203 145.471 24.5427 146.71 24.9716C147.949 25.4005 148.918 25.9088 149.633 26.4965V30.42H149.013C147.949 29.5304 146.948 28.8792 145.98 28.482C145.011 28.0849 143.962 27.8943 142.803 27.8943C141.643 27.8943 140.499 28.1802 139.451 28.7362C138.403 29.308 137.513 30.0546 136.782 31.0077C136.052 31.9607 135.528 33.0091 135.226 34.1528C135.528 35.2965 136.052 36.3449 136.814 37.2979C137.561 38.251 138.482 38.9976 139.562 39.5694C140.642 40.1412 141.802 40.4113 143.057 40.4113C144.137 40.4113 145.154 40.2207 146.122 39.8236V37.3774C146.122 36.8055 146.075 36.329 145.995 35.9477C145.916 35.5665 145.773 35.0741 145.582 34.4864H150.205C150.014 35.0741 149.871 35.5665 149.792 35.9636C149.712 36.3607 149.665 36.8373 149.665 37.4091V42.4604C148.902 42.8734 147.87 43.2228 146.599 43.5405C145.328 43.8423 144.089 44.0012 142.866 44.0012C141.262 44.0012 139.769 43.6676 138.434 43.0163C137.084 42.3651 136.036 41.4438 135.257 40.2683C134.479 39.0929 134.082 37.7586 134.082 36.2813C134.082 35.5348 134.177 34.82 134.352 34.1528ZM138.18 28.5774C139.594 27.5607 141.151 27.0524 142.834 27.0524C143.93 27.0524 144.963 27.2272 145.932 27.5607C146.901 27.8943 147.854 28.4344 148.807 29.1492V26.9412C148.108 26.4647 147.234 26.0517 146.17 25.7023C145.106 25.3687 144.01 25.194 142.834 25.194C141.325 25.194 139.975 25.4799 138.784 26.0676C137.592 26.6553 136.655 27.4654 135.972 28.5138C135.289 29.5622 134.956 30.7376 134.956 32.0402V32.469C135.686 30.8965 136.766 29.594 138.18 28.5774ZM149.061 35.3441H146.758C146.917 36.0272 146.996 36.7102 146.996 37.3932V40.3954C146.583 40.6178 146.027 40.8084 145.312 40.999C144.598 41.1896 143.851 41.2849 143.073 41.2849C141.294 41.2849 139.689 40.7766 138.244 39.76C136.798 38.7434 135.702 37.4409 134.972 35.8683V36.2972C134.972 37.6156 135.321 38.807 136.004 39.8394C136.687 40.8719 137.64 41.682 138.847 42.2698C140.055 42.8575 141.405 43.1434 142.898 43.1434C143.962 43.1434 145.026 43.0322 146.091 42.794C147.171 42.5557 148.076 42.2698 148.839 41.9362V37.425C148.839 36.7261 148.918 36.0431 149.077 35.36L149.061 35.3441Z" fill="black"/>
</g>
<defs>
<clipPath id="clip0_241_3567">
<rect width="150.204" height="44" fill="white"/>
</clipPath>
</defs>
</svg>
