<svg width="20" height="20" viewBox="0 0 20 20" fill="none" xmlns="http://www.w3.org/2000/svg">
<path d="M18.8822 4.57921C18.8344 4.52182 18.7746 4.47564 18.707 4.44395C18.6393 4.41226 18.5655 4.39583 18.4908 4.39583H4.651L4.11014 1.41854C4.08887 1.30117 4.02707 1.19498 3.93552 1.1185C3.84398 1.04201 3.72849 1.00008 3.60919 1H1.50944C1.37433 1 1.24475 1.05367 1.14921 1.14919C1.05367 1.24472 1 1.37428 1 1.50937C1 1.64447 1.05367 1.77403 1.14921 1.86956C1.24475 1.96508 1.37433 2.01875 1.50944 2.01875H3.18381L5.37525 14.0689C5.44396 14.4488 5.62911 14.798 5.90507 15.0681C5.57158 15.3344 5.32247 15.6917 5.18788 16.0967C5.0533 16.5017 5.03903 16.937 5.14678 17.35C5.25454 17.7629 5.47972 18.1358 5.79504 18.4234C6.11037 18.711 6.50232 18.9011 6.92345 18.9706C7.34458 19.04 7.77682 18.986 8.16784 18.8149C8.55886 18.6438 8.8919 18.363 9.12663 18.0066C9.36135 17.6502 9.48771 17.2333 9.49039 16.8066C9.49307 16.3798 9.37196 15.9614 9.14173 15.6021H13.5756C13.3116 16.0152 13.1926 16.5044 13.2375 16.9925C13.2823 17.4807 13.4884 17.94 13.8233 18.2981C14.1581 18.6562 14.6027 18.8926 15.0868 18.9701C15.5709 19.0476 16.0671 18.9618 16.497 18.7261C16.9269 18.4905 17.2661 18.1184 17.4612 17.6687C17.6562 17.2189 17.696 16.717 17.5741 16.2422C17.4523 15.7673 17.1759 15.3465 16.7884 15.0462C16.4009 14.7458 15.9245 14.583 15.4342 14.5833H7.21264C7.01379 14.5834 6.82124 14.5136 6.66856 14.3862C6.51588 14.2589 6.41275 14.0819 6.37716 13.8863L6.07149 12.2062H16.1219C16.5594 12.2064 16.983 12.0529 17.319 11.7727C17.6549 11.4926 17.8818 11.1034 17.9602 10.673L18.9918 4.99604C19.0051 4.92278 19.0022 4.84749 18.9833 4.77547C18.9644 4.70345 18.9299 4.63646 18.8822 4.57921ZM8.47181 16.7906C8.47181 17.0257 8.40209 17.2555 8.27148 17.4509C8.14086 17.6464 7.95521 17.7987 7.73801 17.8887C7.5208 17.9786 7.28179 18.0022 7.05121 17.9563C6.82062 17.9105 6.60882 17.7973 6.44258 17.631C6.27633 17.4648 6.16312 17.253 6.11726 17.0225C6.07139 16.7919 6.09493 16.553 6.1849 16.3358C6.27487 16.1186 6.42723 15.933 6.62271 15.8024C6.81819 15.6718 7.04801 15.6021 7.28311 15.6021C7.59837 15.6021 7.90072 15.7273 8.12365 15.9502C8.34657 16.1731 8.47181 16.4754 8.47181 16.7906ZM16.6229 16.7906C16.6229 17.0257 16.5532 17.2555 16.4225 17.4509C16.2919 17.6464 16.1063 17.7987 15.8891 17.8887C15.6719 17.9786 15.4329 18.0022 15.2023 17.9563C14.9717 17.9105 14.7599 17.7973 14.5936 17.631C14.4274 17.4648 14.3142 17.253 14.2683 17.0225C14.2225 16.7919 14.246 16.553 14.336 16.3358C14.4259 16.1186 14.5783 15.933 14.7738 15.8024C14.9693 15.6718 15.1991 15.6021 15.4342 15.6021C15.7494 15.6021 16.0518 15.7273 16.2747 15.9502C16.4976 16.1731 16.6229 16.4754 16.6229 16.7906ZM16.9574 10.4905C16.9218 10.6861 16.8187 10.863 16.666 10.9904C16.5133 11.1178 16.3208 11.1875 16.1219 11.1875H5.88639L4.83694 5.41458H17.8803L16.9574 10.4905Z" fill="white"/>
</svg>
